<svg xmlns="http://www.w3.org/2000/svg" xmlns:xlink="http://www.w3.org/1999/xlink" xmlns:lucid="lucid" width="1966.79" height="1924.84"><g transform="translate(-110.14197530864203 -139.5)" lucid:page-tab-id="0_0"><path d="M240 266a6 6 0 0 1 6-6h528a6 6 0 0 1 6 6v1288a6 6 0 0 1-6 6H246a6 6 0 0 1-6-6z" fill="#248814" fill-opacity=".13"/><path d="M240 260h56v56h-56v-56z" stroke="#fff" stroke-opacity="0" fill="#248814"/><path d="M283.38 282.18c-.15-.17-.34-.25-.56-.25h-5.15v-5.58c-.03-2.54-.97-4.7-2.84-6.4-1.9-1.83-4.15-2.75-6.77-2.75-2.65 0-4.9.83-6.8 2.62-1.9 1.7-2.87 3.87-2.9 6.4v5.66h-5.15c-.24 0-.43.1-.58.25-.16.17-.22.34-.22.6V308c0 .43.34.8.8.8h29.6c.46 0 .8-.37.8-.8v-25.28c0-.2-.06-.38-.22-.54zm-23.46-5.9c.03-2.13.8-3.88 2.37-5.3 1.6-1.5 3.52-2.2 5.73-2.2 2.22 0 4.12.75 5.7 2.25 1.54 1.4 2.32 3.2 2.32 5.32v5.58H259.9zm22.1 30.94h-28.03v-23.7h28z" stroke="#fff" stroke-opacity="0" fill="#fff"/><path d="M267.2 297.3v6.25h1.6v-6.23c2.13-.4 3.62-2.2 3.63-4.35 0-2.43-1.97-4.4-4.4-4.43-2.2-.03-4.06 1.5-4.44 3.68-.42 2.4 1.2 4.68 3.6 5.1zm.82-7.15c.78 0 1.44.27 2 .83.54.55.82 1.2.8 2 .03 1.54-1.2 2.8-2.74 2.8h-.06c-1.56.13-2.92-1.04-3.04-2.6-.12-1.56 1.05-2.93 2.6-3.03.16-.02.3-.02.44 0z" stroke="#fff" stroke-opacity="0" fill="#fff"/><use xlink:href="#a" transform="matrix(1,0,0,1,311,280) translate(0 28.444444444444443)"/><use xlink:href="#b" transform="matrix(1,0,0,1,311,280) translate(116.34567901234568 28.444444444444443)"/><path d="M860 266a6 6 0 0 1 6-6h1048a6 6 0 0 1 6 6v1288a6 6 0 0 1-6 6H866a6 6 0 0 1-6-6z" fill="#147eba" fill-opacity=".13"/><path d="M860 260h56v56h-56v-56z" stroke="#fff" stroke-opacity="0" fill="#147eba"/><path d="M903.38 282.18c-.15-.17-.34-.25-.56-.25h-5.15v-5.58c-.03-2.54-.96-4.7-2.84-6.4-1.9-1.83-4.15-2.75-6.77-2.75-2.65 0-4.9.83-6.8 2.62-1.9 1.7-2.87 3.87-2.9 6.4v5.66h-5.15c-.24 0-.43.1-.58.25-.16.17-.22.34-.22.6V308c0 .43.34.8.8.8h29.6c.46 0 .8-.37.8-.8v-25.28c0-.2-.06-.38-.22-.54zm-23.46-5.9c.03-2.13.8-3.88 2.37-5.3 1.6-1.5 3.52-2.2 5.73-2.2 2.22 0 4.12.75 5.7 2.25 1.54 1.4 2.32 3.2 2.32 5.32v5.58H879.9zm22.1 30.94h-28.03v-23.7h28z" stroke="#fff" stroke-opacity="0" fill="#fff"/><path d="M887.2 297.3v6.25h1.6v-6.23c2.13-.4 3.62-2.2 3.63-4.35 0-2.43-1.97-4.4-4.4-4.43-2.2-.03-4.06 1.5-4.44 3.68-.42 2.4 1.2 4.68 3.6 5.1zm.82-7.15c.78 0 1.44.27 2 .83.54.55.82 1.2.8 2 .03 1.54-1.2 2.8-2.74 2.8h-.06c-1.56.13-2.92-1.04-3.04-2.6-.12-1.56 1.05-2.93 2.6-3.03.16-.02.28-.02.44 0z" stroke="#fff" stroke-opacity="0" fill="#fff"/><use xlink:href="#c" transform="matrix(1,0,0,1,930.9999999999999,280) translate(0 28.444444444444443)"/><use xlink:href="#b" transform="matrix(1,0,0,1,930.9999999999999,280) translate(128.29629629629628 28.444444444444443)"/><path d="M180 222a30 30 0 0 1 30-30h1740a30 30 0 0 1 30 30v1368a30 30 0 0 1-30 30H210a30 30 0 0 1-30-30z" stroke="#474747" fill-opacity="0"/><path d="M241.97 180.24v-5.9c0-7.25-5.88-13.13-13.12-13.13-7.24 0-13.12 5.9-13.12 13.14v5.9h6.64v-5.9c0-3.58 2.9-6.5 6.48-6.5 3.57 0 6.48 2.92 6.48 6.5v5.9h6.64z" fill="#876a22"/><path d="M241.98 180.26h5.42v20.83H210v-20.84h5.72v-7.1c0-7.28 5.87-13.16 13.13-13.16 7.25 0 13.13 5.88 13.13 13.15v7.1zm-6.66 0v-7.1c0-3.6-2.88-6.5-6.47-6.5-3.6 0-6.47 2.9-6.47 6.5v7.1h12.94z" fill="#daa835"/><path d="M210 201.1h37.4v.9H210z" fill="#876a22"/><use xlink:href="#d" transform="matrix(1,0,0,1,180,1590) translate(858.9444444444445 4.0000000000000036)"/><path d="M906.48 356a6 6 0 0 1 6-6h428a6 6 0 0 1 6 6v508a6 6 0 0 1-6 6h-428a6 6 0 0 1-6-6z" stroke="#d86613" stroke-width="2" fill="#fff" fill-opacity="0"/><path d="M906.48 350h56v56h-56v-56z" stroke="#fff" stroke-opacity="0" fill="#d86613"/><path d="M946.46 385.6V384c1.92 0 6.4-.6 6.4-5.94 0-3.18-1.87-5.2-5.6-5.96-.36-.08-.6-.36-.64-.72-.16-3.2-2-4.24-3.48-4.24-1.04 0-1.96.47-2.6 1.3-.16.27-.44.37-.77.32-.28-.05-.52-.23-.64-.5-.52-1.58-1.32-2.8-2.48-3.97-1.68-1.78-3.76-2.68-6.2-2.73-4.93-.13-9.05 3.78-9.18 8.7 0 .4.05.7.1 1.1.03.37-.22.76-.62.86-2.8.5-4.8 2.93-4.68 5.78v.45c.32 3.23 3.04 5.65 6.3 5.55h.9v1.6h-.9c-4.1.1-7.54-2.97-7.9-7.05V378c-.16-3.36 1.96-6.3 5.24-7.2v-.6c.13-5.8 4.98-10.43 10.78-10.3 2.9.08 5.3 1.13 7.3 3.16 1.07 1.05 1.8 2.1 2.44 3.44.88-.7 1.84-1.03 2.96-1.03 2.24 0 4.6 1.6 5.04 5.14 4.05 1 6.3 3.63 6.3 7.4-.05 5.6-4.17 7.6-8.06 7.6z" stroke="#fff" stroke-opacity="0" fill="#fff"/><path d="M940.08 377.46c-2.1.03-3.84 1.46-4.25 3.55-.45 2.35 1.1 4.63 3.44 5.1v3.5h-4.8v-13.65c1.8-.34 3.14-1.66 3.5-3.5.42-2.33-1.13-4.6-3.5-5.04-2.35-.45-4.63 1.12-5.06 3.46-.44 2.38 1.1 4.66 3.47 5.1v9.6h-4.8v-1.6c1.8-.36 3.14-1.67 3.5-3.5.42-2.34-1.13-4.63-3.5-5.05-2.35-.45-4.63 1.12-5.08 3.46-.44 2.37 1.1 4.66 3.47 5.1v2.33c.02.42.36.8.8.8h5.6v8.8h1.6v-4.8h5.6c.44 0 .8-.38.8-.8v-4.2c2.07-.4 3.5-2.15 3.53-4.24.02-2.4-1.9-4.37-4.32-4.4zm-15.55 2.35c0-1.54 1.23-2.77 2.75-2.77 1.5 0 2.75 1.23 2.75 2.78 0 1.52-1.24 2.75-2.75 2.75-1.52 0-2.75-1.23-2.75-2.75zm6.4-8.1c0-1.55 1.23-2.78 2.75-2.78 1.5 0 2.75 1.23 2.75 2.77 0 1.5-1.24 2.73-2.75 2.73-1.52 0-2.75-1.22-2.75-2.74zm9.15 12.88c-1.52 0-2.75-1.23-2.75-2.75 0-1.54 1.23-2.77 2.75-2.77 1.53 0 2.75 1.23 2.75 2.77 0 1.52-1.22 2.75-2.75 2.75z" stroke="#fff" stroke-opacity="0" fill="#fff"/><use xlink:href="#e" transform="matrix(1,0,0,1,977.4775280898876,370) translate(0 28.444444444444443)"/><path d="M900 946a6 6 0 0 1 6-6h428a6 6 0 0 1 6 6v508a6 6 0 0 1-6 6H906a6 6 0 0 1-6-6z" stroke="#d86613" stroke-width="2" fill="#fff" fill-opacity="0"/><path d="M900 940h56v56h-56v-56z" stroke="#fff" stroke-opacity="0" fill="#d86613"/><path d="M939.98 975.6V974c1.93 0 6.4-.6 6.4-5.94 0-3.18-1.87-5.2-5.6-5.96-.36-.08-.6-.36-.64-.72-.16-3.2-2-4.24-3.48-4.24-1.04 0-1.96.47-2.6 1.3-.16.27-.44.37-.76.32-.28-.05-.52-.23-.64-.5-.52-1.58-1.32-2.8-2.5-3.97-1.67-1.78-3.75-2.68-6.2-2.73-4.92-.13-9.04 3.78-9.16 8.7 0 .4.04.7.08 1.1.04.37-.2.76-.6.86-2.8.5-4.8 2.93-4.7 5.78v.45c.33 3.23 3.06 5.65 6.3 5.54h.92v1.6h-.92c-4.1.1-7.53-2.97-7.9-7.05V968c-.15-3.36 1.97-6.3 5.26-7.2v-.6c.12-5.8 4.96-10.43 10.77-10.3 2.9.08 5.3 1.13 7.3 3.16 1.08 1.05 1.8 2.1 2.44 3.44.88-.7 1.84-1.03 2.96-1.03 2.24 0 4.6 1.6 5.05 5.14 4.04 1 6.28 3.63 6.28 7.4-.04 5.6-4.16 7.6-8.05 7.6z" stroke="#fff" stroke-opacity="0" fill="#fff"/><path d="M933.6 967.46c-2.1.03-3.84 1.46-4.25 3.54-.45 2.35 1.1 4.63 3.44 5.1v3.5H928v-13.65c1.8-.34 3.14-1.66 3.48-3.5.43-2.33-1.12-4.6-3.48-5.04-2.36-.45-4.64 1.12-5.07 3.46-.45 2.38 1.1 4.66 3.46 5.1v9.6h-4.8v-1.6c1.8-.36 3.14-1.67 3.48-3.5.43-2.34-1.12-4.63-3.48-5.05-2.36-.45-4.64 1.12-5.1 3.46-.42 2.37 1.13 4.66 3.5 5.1v2.33c0 .42.36.8.8.8h5.6v8.8h1.6v-4.8h5.6c.43 0 .8-.38.8-.8v-4.2c2.06-.4 3.5-2.15 3.52-4.24.02-2.4-1.9-4.37-4.3-4.4zm-15.54 2.34c0-1.54 1.22-2.77 2.75-2.77 1.5 0 2.75 1.23 2.75 2.77 0 1.52-1.24 2.75-2.74 2.75-1.52 0-2.74-1.23-2.74-2.75zm6.4-8.1c0-1.55 1.22-2.78 2.75-2.78 1.5 0 2.75 1.23 2.75 2.77 0 1.5-1.24 2.73-2.74 2.73-1.52 0-2.74-1.22-2.74-2.74zm9.15 12.88c-1.52 0-2.74-1.23-2.74-2.75 0-1.54 1.22-2.77 2.75-2.77s2.75 1.23 2.75 2.77c0 1.52-1.22 2.75-2.74 2.75z" stroke="#fff" stroke-opacity="0" fill="#fff"/><use xlink:href="#e" transform="matrix(1,0,0,1,971,960) translate(0 28.444444444444443)"/><path d="M1069.24 605.52h114.48V720h-114.48V605.52z" stroke="#fff" stroke-opacity="0" stroke-width="2" fill="#d86613"/><path d="M1161.6 667.34h-7.66v-3.03h7.65v-36.66h-36.68v7.65h-3.04v-7.66c0-1.67 1.37-3.04 3.04-3.04h36.67c1.65 0 3.02 1.37 3.02 3.04v36.67c0 1.67-1.37 3.04-3.03 3.04zM1128 700.92h-36.66c-1.67 0-3.04-1.37-3.04-3.03V661.2c0-1.67 1.37-3.04 3.04-3.04h7.65v3.04h-7.66v36.67H1128v-7.66h3.04v7.65c0 1.65-1.37 3.02-3.03 3.02z" stroke="#fff" stroke-opacity="0" stroke-width="2" fill="#fff"/><path d="M1150.9 649.04v-3.08h-4.6c-.1-1.6-1.4-2.93-3.02-3.03v-4.6h-3.08v4.6h-4.54v-4.6h-3.08v4.6h-4.6v-4.6h-3.02v4.6h-4.6v-4.6h-3.02v4.6h-4.6v-4.6h-3.07v4.6c-1.6.1-2.93 1.42-3.02 3.03h-4.6v3.08h4.6v4.6h-4.6v3.02h4.6v4.6h-4.6v3.02h4.6v4.6h-4.6v3.06h4.6v4.55h-4.6v3.06h4.6c.1 1.62 1.4 2.93 3.02 3.03v4.58h3.08v-4.6h4.6v4.6h3.02v-4.6h4.6v4.6h3.02v-4.6h4.58v4.6h3.08v-4.6h4.54v4.6h3.08v-4.6c1.6-.1 2.93-1.4 3.03-3.02h4.6v-3.07h-4.6v-4.56h4.6v-3.07h-4.6v-4.6h4.6v-3.02h-4.6v-4.6h4.6v-3.02h-4.6v-4.6zm-7.62 30.23c0 .15-.15.3-.3.3h-33c-.16 0-.3-.15-.3-.3v-33.02c0-.14.14-.3.3-.3h33c.15 0 .3.16.3.3z" stroke="#fff" stroke-opacity="0" stroke-width="2" fill="#fff"/><use xlink:href="#f" transform="matrix(1,0,0,1,1039.2389912532053,729) translate(7.055555555555571 28.444444444444443)"/><use xlink:href="#g" transform="matrix(1,0,0,1,1039.2389912532053,729) translate(93.77160493827162 28.444444444444443)"/><use xlink:href="#h" transform="matrix(1,0,0,1,1039.2389912532053,729) translate(57.91975308641976 71.11111111111111)"/><path d="M1076.13 1195.8h114.47v114.48h-114.47V1195.8z" stroke="#fff" stroke-opacity="0" stroke-width="2" fill="#d86613"/><path d="M1168.47 1257.63h-7.65v-3.04h7.65v-36.68h-36.66v7.65h-3.03v-7.65c0-1.67 1.37-3.03 3.04-3.03h36.67c1.67 0 3.04 1.35 3.04 3.02v36.67c0 1.66-1.36 3.03-3.03 3.03zM1134.9 1291.2h-36.68c-1.66 0-3.03-1.36-3.03-3.03v-36.67c0-1.67 1.36-3.03 3.02-3.03h7.65v3.03h-7.64v36.67h36.66v-7.65h3.03v7.65c0 1.67-1.37 3.03-3.04 3.03z" stroke="#fff" stroke-opacity="0" stroke-width="2" fill="#fff"/><path d="M1157.8 1239.32v-3.08h-4.6c-.1-1.6-1.42-2.93-3.03-3.03v-4.58h-3.08v4.6h-4.55v-4.6h-3.08v4.6h-4.6v-4.6h-3.02v4.6h-4.6v-4.6h-3.02v4.6h-4.6v-4.6h-3.07v4.6c-1.6.1-2.93 1.4-3.03 3.02h-4.6v3.08h4.6v4.6h-4.6v3.02h4.6v4.6h-4.6v3.02h4.6v4.6h-4.6v3.07h4.6v4.54h-4.6v3.08h4.6c.1 1.6 1.42 2.93 3.03 3.03v4.6h3.08v-4.6h4.6v4.6h3.02v-4.6h4.6v4.6h3.02v-4.6h4.6v4.6h3.07v-4.6h4.54v4.6h3.07v-4.6c1.6-.1 2.93-1.42 3.02-3.03h4.6v-3.08h-4.6v-4.54h4.6v-3.08h-4.6v-4.6h4.6v-3.02h-4.6v-4.6h4.6v-3.02h-4.6v-4.58zm-7.63 30.24c0 .14-.15.3-.3.3h-33c-.16 0-.3-.16-.3-.3v-33.02c0-.15.14-.3.3-.3h33c.15 0 .3.15.3.3z" stroke="#fff" stroke-opacity="0" stroke-width="2" fill="#fff"/><use xlink:href="#i" transform="matrix(1,0,0,1,1046.1264435684143,1319.2843894899536) translate(49.08024691358025 28.444444444444443)"/><use xlink:href="#j" transform="matrix(1,0,0,1,1046.1264435684143,1319.2843894899536) translate(32.339506172839506 71.11111111111111)"/><use xlink:href="#h" transform="matrix(1,0,0,1,1046.1264435684143,1319.2843894899536) translate(57.91975308641976 113.77777777777777)"/><path d="M640 775.1c0 68.93-58.24 124.87-130 124.87-71.76 0-130-55.94-130-124.86s58.24-124.86 130-124.86c71.76 0 130 55.94 130 124.87z" fill="#9d5025"/><path d="M640 764.87c0 68.92-58.24 124.86-130 124.86-71.76 0-130-55.94-130-124.87C380 695.95 438.24 640 510 640c71.76 0 130 55.94 130 124.87z" fill="#f58536"/><path d="M547.9 664v45.34h-75.86V664h75.87zM606.6 795.22v36.92h-38.44v-36.92h38.43zM558 795.22v36.92h-38.43v-36.92H558zM498.82 795.22v36.92H460.4v-36.92h38.42zM450.2 795.22v36.92h-38.43v-36.92h38.43z" fill="#fff"/><path d="M427.53 763.27h6.9v36.2h-6.9v-36.2z" fill="#fff"/><path d="M427.53 763.27h55.53v6.63h-55.53v-6.63z" fill="#fff"/><path d="M476.15 763.27h6.9v36.2h-6.9v-36.2zM535.32 763.27h6.92v36.2h-6.92v-36.2z" fill="#fff"/><path d="M535.32 763.27h55.54v6.63h-55.54v-6.63z" fill="#fff"/><path d="M583.94 763.27h6.92v36.2h-6.92v-36.2zM451.9 737.4h6.9v29.17h-6.9V737.4zM506.52 702.66h6.9v35.28h-6.9v-35.28z" fill="#fff"/><path d="M451.9 734.6h114.78v6.64h-114.8v-6.63z" fill="#fff"/><path d="M559.76 737.4h6.92v29.17h-6.92V737.4z" fill="#fff"/><use xlink:href="#k" transform="matrix(1,0,0,1,380,900) translate(69.85185185185186 28.444444444444443)"/><use xlink:href="#l" transform="matrix(1,0,0,1,380,900) translate(33.50617283950619 71.11111111111111)"/><use xlink:href="#m" transform="matrix(1,0,0,1,380,900) translate(7.777777777777786 113.77777777777777)"/><use xlink:href="#n" transform="matrix(1,0,0,1,380,900) translate(102.29629629629629 113.77777777777777)"/><path d="M1690.64 577.02c34.34 0 69.36 10.88 69.36 31.96v137.36c0 20.74-35.02 31.96-69.36 31.96-34.34 0-69.36-11.22-69.36-31.96V608.98c0-21.08 35.02-31.96 69.36-31.96zm-226.1 187.34h151.98V780h-151.98c-24.48 0-44.54-20.06-44.54-44.54V484.54c0-24.48 20.06-44.54 44.54-44.54h250.24c24.48 0 44.2 20.06 44.2 44.54v98.26h-15.3v-98.26c0-15.98-12.92-28.9-28.9-28.9h-250.24c-15.98 0-29.24 12.92-29.24 28.9v250.92c0 15.98 13.26 28.9 29.24 28.9zm226.1-91.12c35.7 0 54.06-11.56 54.06-16.32v-27.2c-13.6 7.14-33.66 10.88-54.06 10.88-20.06 0-40.46-3.74-53.72-10.88v27.2c0 4.76 18.36 16.32 53.72 16.32zm0 47.26c35.7 0 54.06-11.56 54.06-16.32v-26.52c-13.6 7.14-33.66 11.22-54.06 11.22-20.06 0-40.46-4.08-53.72-11.22v26.52c0 4.76 18.36 16.32 53.72 16.32zm0 42.16c35.7 0 54.06-11.56 54.06-16.32v-21.42c-13.6 7.14-33.66 10.88-54.06 10.88-20.06 0-40.46-3.74-53.72-10.88v21.42c0 4.76 18.36 16.32 53.72 16.32zm0-170c-35.36 0-53.72 11.22-53.72 16.32 0 4.76 18.36 16.32 53.72 16.32 35.7 0 54.06-11.56 54.06-16.32 0-5.1-18.36-16.32-54.06-16.32zm9.18-68.34c-2.04 4.08-5.1 6.46-9.18 7.82 1.7 1.36 3.74 2.38 5.78 3.4 1.7.68 4.08 1.02 6.12 1.36v5.78c-3.4-.34-6.46-1.36-9.52-3.06-3.06-1.7-5.78-4.08-8.5-6.8-3.4 0-6.46-1.36-9.18-3.06-2.38-2.04-4.42-4.76-5.44-8.5-1.36-3.74-2.04-7.82-2.04-12.92 0-7.48 1.36-13.6 4.76-17.68 3.06-4.42 7.14-6.46 12.92-6.46 5.44 0 9.86 2.04 12.92 6.46 3.06 4.08 4.76 10.2 4.76 17.68 0 6.46-1.02 11.9-3.4 15.98zM1569.6 538.6c1.02-1.7 1.7-4.42 1.7-8.5v-2.38c-2.38 2.38-5.1 3.4-7.82 3.4-2.04 0-4.08-.68-5.78-2.04-1.7-1.36-3.06-3.4-3.74-6.12-1.02-2.38-1.36-5.44-1.36-8.84 0-5.44 1.02-9.52 3.06-12.58 2.04-3.4 4.76-4.76 8.16-4.76 2.72 0 5.44 1.02 8.16 3.74l.34-3.06h5.44v32.3c0 11.22-4.76 17-13.6 17-3.4 0-6.46-1.02-9.52-2.72v-4.76c3.4 1.36 6.46 2.04 8.84 2.04 3.06 0 5.1-1.02 6.12-2.72zm-105.74-51.68c1.7 1.02 3.4 2.72 4.42 5.1 1.02 2.04 1.36 4.42 1.36 7.48 0 4.08-1.02 7.48-3.4 10.2-2.38 2.72-5.44 4.08-9.18 4.08h-7.14v18.02h-6.46v-46.92h13.6c2.72 0 4.76.68 6.8 2.04zm24.14 9.86c4.42 0 7.82 1.36 9.86 4.42 2.38 3.4 3.4 7.82 3.4 13.6 0 5.78-1.02 10.2-3.4 13.26-2.04 3.06-5.44 4.76-9.86 4.76-4.08 0-7.48-1.7-9.52-4.76-2.38-3.06-3.74-7.48-3.74-13.26 0-5.78 1.36-10.2 3.74-13.6 2.04-3.06 5.44-4.42 9.52-4.42zm197.54 30.6c3.74 0 6.46-1.7 8.16-4.76 1.7-3.4 2.72-7.82 2.72-14.28 0-6.12-1.02-10.88-2.72-13.94-1.7-3.06-4.42-4.76-8.16-4.76s-6.46 1.7-8.16 4.76c-2.04 3.06-2.72 7.82-2.72 13.94 0 6.46.68 10.88 2.72 14.28 1.7 3.06 4.42 4.76 8.16 4.76zm-56.44-2.04v4.76c-2.72 1.7-5.78 2.72-9.52 2.72-4.42 0-7.82-1.7-10.2-4.42-2.38-3.06-3.4-7.48-3.4-13.6 0-5.78 1.02-10.54 3.4-13.6 2.38-3.06 5.44-4.42 9.52-4.42 3.74 0 6.46 1.02 8.16 3.4 1.7 2.38 2.72 5.78 2.72 10.2 0 2.04 0 4.08-.68 5.78h-17c0 4.08.68 6.8 2.04 8.84 1.36 1.7 3.4 2.72 6.46 2.72 2.72 0 5.44-.68 8.5-2.38zm23.8 0c1.36-1.36 2.04-3.4 2.04-5.78 0-3.06-2.04-5.78-5.44-7.48l-4.76-2.38c-3.06-1.7-5.44-3.4-6.8-5.44-1.36-2.04-2.04-4.42-2.04-7.14 0-4.08 1.36-7.14 3.74-9.52s5.44-3.4 9.52-3.4c2.72 0 6.12.68 9.86 2.38v5.1c-3.06-1.36-6.12-2.04-9.52-2.04-2.04 0-3.74.68-5.1 2.04-1.02 1.02-1.7 2.72-1.7 5.1 0 1.36.34 3.06 1.02 4.08 1.02 1.36 2.38 2.38 4.42 3.4l4.76 2.38c3.06 1.36 5.1 3.4 6.46 5.1 1.36 2.04 2.04 4.76 2.04 7.48 0 4.08-1.36 7.48-3.74 9.86-2.72 2.38-6.12 3.74-10.2 3.74-2.04 0-4.08-.34-6.12-.68s-3.4-1.02-5.1-2.04V525c3.74 1.36 7.48 2.38 10.88 2.38 2.38 0 4.42-.68 5.78-2.04zm65.96-40.46v41.48h17v5.44h-23.8v-46.92zm-185.3 38.08v-20.4h-4.76v-4.08l5.1-.68 1.02-9.86h5.1v9.52h7.82v5.1h-7.82v19.72c0 1.7.34 3.06.68 3.74.68.68 1.7 1.02 3.06 1.02s2.72-.34 4.08-.68v4.76c-1.7.68-3.74 1.02-6.12 1.02-2.72 0-4.76-.68-6.12-2.04-1.36-1.7-2.04-4.08-2.04-7.14zm-13.94 3.4c.68-.68 1.36-2.04 1.36-3.74 0-2.04-1.36-3.4-3.74-4.76l-4.42-2.04c-4.08-2.04-6.12-5.1-6.12-9.52 0-2.72 1.02-5.1 2.72-6.8 2.04-2.04 4.42-2.72 7.48-2.72 2.72 0 5.44.68 8.16 2.04v4.76c-2.38-1.36-5.1-2.04-7.82-2.04-1.36 0-2.72.68-3.4 1.36-1.02.68-1.36 2.04-1.36 3.4 0 1.02.34 2.04.68 2.72.68.68 1.7 1.7 3.06 2.38l4.42 2.04c2.04 1.02 3.4 2.04 4.42 3.74 1.02 1.36 1.36 3.06 1.36 5.1 0 3.06-.68 5.78-2.72 7.48-2.04 2.04-4.42 3.06-7.82 3.06-3.4 0-6.46-1.02-9.52-2.72v-4.42c3.74 1.36 6.8 2.04 9.18 2.04 1.7 0 3.06-.34 4.08-1.36zm-26.18-2.04c1.02-2.04 1.7-5.1 1.7-9.52s-.68-7.82-1.7-9.86c-1.36-2.04-3.06-3.06-5.44-3.06-2.38 0-4.08 1.02-5.1 3.06-1.02 2.04-1.7 5.44-1.7 9.86 0 4.42.68 7.48 1.7 9.52 1.02 2.38 2.72 3.4 5.1 3.4 2.38 0 4.08-1.02 5.44-3.4zm103.02-25.84c1.02-.68 2.72-1.02 4.42-1.02h2.04v5.78h-3.06c-2.38 0-4.76.68-6.8 2.38v26.18h-6.46v-34.34h5.44l.34 4.08c1.36-1.36 2.72-2.38 4.08-3.06zm-30.94 27.54c1.7 0 3.74-1.02 5.78-2.72v-19.04c-2.04-1.7-4.08-2.38-6.12-2.38s-3.74 1.02-4.76 3.06c-1.02 1.7-1.7 4.76-1.7 9.18 0 4.08.68 6.8 1.7 8.84s2.72 3.06 5.1 3.06zm-104.04-20.06c1.02-1.7 1.7-3.74 1.7-6.46 0-3.06-.68-5.44-1.7-6.8-1.36-1.7-3.06-2.38-5.1-2.38h-6.46v18.02h6.46c2.04 0 3.74-.68 5.1-2.38zm152.32-1.7c-1.02 1.7-1.7 4.08-1.7 7.48h11.9v-.68c.34-.34.34-.68.34-1.02 0-3.06-.68-5.1-1.36-6.46-1.02-1.36-2.38-2.04-4.08-2.04-2.38 0-3.74.68-5.1 2.72z" stroke="#000" stroke-opacity="0" fill="#2e27ad"/><path d="M1463.4 448.8h254.34c23.8 0 35.87 11.96 35.87 35.86v251.3c0 23.9-12.06 35.85-35.86 35.85H1463.4c-23.8 0-35.85-11.94-35.85-35.85v-251.3c0-23.9 12.06-35.84 35.87-35.84z" stroke="#000" stroke-opacity="0" fill-opacity="0"/><use xlink:href="#o" transform="matrix(1,0,0,1,1390,789) translate(61.03703703703704 28.444444444444443)"/><use xlink:href="#p" transform="matrix(1,0,0,1,1390,789) translate(187.1604938271605 28.444444444444443)"/><path d="M613.48 1796.5v-19.84h-7.9v-8.42h7.9v-19.45l-7.9-3.57v-4.67l7.9-.57v-19.84l-23.53-22.82-42.33-18.52h-59.1l-42.7 18.52-20.5 22.82V1740l5.82.56v4.67l-5.83 3.18v19.84h5.84v8.23h-5.83v19.84l5.84 3v4.86l-5.83.56v19.84l20.5 22.82 42.73 18.52h59.1l42.32-18.33 23.53-22.83v-19.64l-7.9-.75v-4.3zm-68.3-5.25L500 1838.77l8.85-40.78-19.2-5.25 18.64-31.8-17.32-7.3 45.16-47.7-8.85 40.96 19.2 5.25-18.64 31.8z" fill="#19486f"/><path d="M446 1818.97v28.54l42.5 18.57.03-35.56-42.54-11.53zM488.45 1713.43v-34.6l-42.56 18.5.08 28.5 42.47-12.4z" fill="#205b99"/><path d="M508.38 1760.8l-7.68 1.2-12.22 1.86-10.58-11.4 13.14 1.1 17.34 7.24zM501.74 1807.77l7.13-9.86-19.14-5.3-11.9 8.55 10.7 10.97 13.2-4.35z" fill="#99bce3"/><path d="M527.27 1746.9l7.6-9.64 9.36-1.5-7.54-6.7 3.35-15.62 6.25-1.76 1.26-32.64-11.38 26.94-8.9 40.9zM535.9 1782l-8.12 2 18.7-31.8 11.9-8.5 8.67 17.05-21.44 4.72-9.14 15.6 5.46 1.85-6-.93zM545.1 1791.23l14.07.68-11.58 23h-10.4l-14.83 15.62 8.62 28.68-42.47 6.72 11.44-27.1 45.14-47.6z" fill="#205b99"/><path d="M534.9 1737.27l12.66 3.52v-11.74H536.7l-1.8 8.2zM498.68 1765.47l2.02-3.47-12.23-5.1v8.57H498.67zM535.87 1782.02l11.7 4.96v-5.9H536.4l-.53.94zM501.74 1807.8l-13.27-3.66v10.77h11.65l1.62-7.1zM500.08 1729.06h-11.6v12.23l11.6-12.24zM488.47 1830.5v35.44l8.1-35.43h-8.1zM547.58 1814.9v-10.86l-10.35 10.85h10.35zM547.58 1713.44v-34.4l-7.5 34.4h7.5z" fill="#2e73b8"/><path d="M488.47 1865.93v.14h59.1v-35.56h-25.23l-33.87 35.43zM488.47 1713.44h26.42l32.68-34.4v-.22h-59.1v34.62z" fill="#2e73b8"/><path d="M547.62 1786.97l11.54 4.92-11.54 12.1v10.9l42.1-8 .05-.04v-28.47l-42.15 2.7v5.87zM547.62 1678.82h-.04l.04.18v34.45l42.15 11.98v-28.06l-42.15-18.55zM547.62 1740.8l10.7 2.93-10.7 18.27-2.07 3.46h2.07l42.15 1.2v-28.84l-42.15-8.76v11.73zM547.62 1866.07l42.15-18.6v-28.46l-42.15 11.5v35.57z" fill="#5294cf"/><path d="M589.8 1806.87l23.66-10.36v-19.83l-23.68 1.72v28.47zM613.44 1740v-19.8l-23.66-22.86v28.1l23.66 14.56zM589.8 1737.8v28.87l23.64 1.55v-19.37l-23.66-11.04zM589.8 1847.5l23.64-22.7v-19.78l-23.66 14.02v28.45z" fill="#2e73b8"/><path d="M447.2 1806.9l23.2 4.48 18.07 3.5v-10.76l-10.64-3 10.64-18.13 1.13-1.9h-1.13l-28.75-1.87-13.74-.84v28.24l.48.1.75.15zM488.5 1765.5l-.05-8.6-10.5-4.4 10.5-11.2v-12.24l-42.04 8.74-.4.1v28.48l14.56-.3 27.93-.6z" fill="#205b99"/><use xlink:href="#q" transform="matrix(1,0,0,1,425.30483698451064,1866.0874301786637) translate(-1.0555555555555571 28.444444444444443)"/><path d="M1530 980h120v120h-120V980z" stroke="#fff" stroke-opacity="0" stroke-width="2" fill="#d86613"/><path d="M1626.8 1080h-19.72c-.64 0-1.15-.32-1.4-.88l-27.92-58.32h-11.78c-.9 0-1.6-.72-1.6-1.6v-17.6c0-.88.7-1.6 1.6-1.6h24.65c.64 0 1.15.32 1.4.88l27.8 58.32h6.97c.9 0 1.6.72 1.6 1.6v17.6c0 .88-.7 1.6-1.6 1.6zm-18.7-3.2h17.1v-14.4h-6.4c-.64 0-1.15-.32-1.4-.88l-27.8-58.32h-22v14.4h11.2c.63 0 1.14.32 1.46.88z" stroke="#fff" stroke-opacity="0" stroke-width="2" fill="#fff"/><path d="M1573.96 1080h-20.8c-.55 0-1.05-.3-1.37-.73-.33-.54-.33-1.12-.08-1.6l21.78-45.46c.24-.58.8-.92 1.4-.92.65 0 1.18.34 1.46.88l10.4 21.43c.26.43.26.92 0 1.4l-11.35 23.98c-.2.63-.77 1.02-1.44 1.02zm-18.24-3.22h17.24l10.6-22.36-8.6-17.88z" stroke="#fff" stroke-opacity="0" stroke-width="2" fill="#fff"/><path d="M1410 980h120v120h-120V980z" stroke="#fff" stroke-opacity="0" stroke-width="2" fill="#d86613"/><path d="M1506.8 1080h-19.72c-.64 0-1.15-.32-1.4-.88l-27.92-58.32h-11.78c-.9 0-1.6-.72-1.6-1.6v-17.6c0-.88.7-1.6 1.6-1.6h24.65c.64 0 1.15.32 1.4.88l27.8 58.32h6.97c.9 0 1.6.72 1.6 1.6v17.6c0 .88-.7 1.6-1.6 1.6zm-18.7-3.2h17.1v-14.4h-6.4c-.64 0-1.15-.32-1.4-.88l-27.8-58.32h-22v14.4h11.2c.63 0 1.14.32 1.46.88z" stroke="#fff" stroke-opacity="0" stroke-width="2" fill="#fff"/><path d="M1453.96 1080h-20.8c-.55 0-1.05-.3-1.37-.73-.33-.54-.33-1.12-.08-1.6l21.78-45.46c.24-.58.8-.92 1.4-.92.65 0 1.18.34 1.46.88l10.4 21.43c.26.43.26.92 0 1.4l-11.35 23.98c-.2.63-.77 1.02-1.44 1.02zm-18.24-3.22h17.24l10.6-22.36-8.6-17.88z" stroke="#fff" stroke-opacity="0" stroke-width="2" fill="#fff"/><path d="M1650 980h120v120h-120V980z" stroke="#fff" stroke-opacity="0" stroke-width="2" fill="#d86613"/><path d="M1746.8 1080h-19.72c-.64 0-1.15-.32-1.4-.88l-27.92-58.32h-11.78c-.9 0-1.6-.72-1.6-1.6v-17.6c0-.88.7-1.6 1.6-1.6h24.65c.64 0 1.15.32 1.4.88l27.8 58.32h6.97c.9 0 1.6.72 1.6 1.6v17.6c0 .88-.7 1.6-1.6 1.6zm-18.7-3.2h17.1v-14.4h-6.4c-.64 0-1.15-.32-1.4-.88l-27.8-58.32h-22v14.4h11.2c.63 0 1.14.32 1.46.88z" stroke="#fff" stroke-opacity="0" stroke-width="2" fill="#fff"/><path d="M1693.96 1080h-20.8c-.55 0-1.05-.3-1.37-.73-.33-.54-.33-1.12-.08-1.6l21.78-45.46c.24-.58.8-.92 1.4-.92.65 0 1.18.34 1.46.88l10.4 21.43c.26.43.26.92 0 1.4l-11.35 23.98c-.2.63-.77 1.02-1.44 1.02zm-18.24-3.22h17.24l10.6-22.36-8.6-17.88z" stroke="#fff" stroke-opacity="0" stroke-width="2" fill="#fff"/><path d="M1430 1106a6 6 0 0 1 6-6h308a6 6 0 0 1 6 6v110a6 6 0 0 1-6 6h-308a6 6 0 0 1-6-6z" stroke="#282c33" stroke-width="2" fill="#fff"/><use xlink:href="#r" transform="matrix(1,0,0,1,1435,1105) translate(17.074074074074133 42.444444444444436)"/><use xlink:href="#s" transform="matrix(1,0,0,1,1435,1105) translate(113.66666666666669 42.444444444444436)"/><use xlink:href="#t" transform="matrix(1,0,0,1,1435,1105) translate(156.92592592592592 42.444444444444436)"/><use xlink:href="#u" transform="matrix(1,0,0,1,1435,1105) translate(75.29629629629632 85.11111111111109)"/><path d="M710.6 1669.4H898.8v188.18H710.6V1669.4z" stroke="#fff" stroke-opacity="0" stroke-width="2" fill="#d6242d"/><path d="M833.13 1795.54l3.55-3.56 30 30-3.56 3.55-30-30zM742.7 1705.07l3.54-3.54 33.26 33.27-3.53 3.53-33.26-33.26zM750.23 1814.55l17.56-17.57 3.54 3.55-17.57 17.56-3.54-3.55zM838.04 1726.7l17.57-17.55 3.55 3.54-17.56 17.56-3.56-3.55z" stroke="#fff" stroke-opacity="0" stroke-width="1.41" fill="#fff"/><path d="M862.3 1761.03c-.5-11.75-3.9-21.68-10.82-31.2l-4.06 2.97c6.25 8.64 9.37 17.56 9.87 28.23h-5.04v5h5.03c-.45 10.74-3.57 19.72-9.88 28.43l4.06 2.9c6.94-9.6 10.4-19.5 10.82-31.33h5.02v-5.07zM773.87 1720.9c8.67-6.3 17.62-9.4 28.32-9.86v4.83h5v-4.83c10.7.46 19.65 3.57 28.32 9.85l3.05-4.08c-9.62-6.93-19.5-10.36-31.37-10.8v-5.2h-5v5.2c-11.87.44-21.76 3.87-31.38 10.8zM835.52 1806.35c-8.67 6.26-17.62 9.4-28.32 9.87v-5.04h-5v5.03c-10.7-.46-19.66-3.6-28.33-9.85l-3.05 4.06c9.62 6.95 19.5 10.37 31.37 10.83v5h5v-5c11.86-.46 21.75-3.88 31.37-10.82zM757.9 1797.37l4.07-2.98c-6.3-8.66-9.43-17.65-9.87-28.4h5.03v-5h-5.03c.5-10.68 3.62-19.6 9.87-28.25l-4.06-2.98c-6.9 9.53-10.32 19.47-10.8 31.23h-5.03v5h5.02c.42 11.83 3.87 21.77 10.8 31.37zM817 1730.24c-3.62-2.98-7.64-4.4-12.3-4.33-9.7 0-17.57 6.85-17.57 15.32v12.26h-5c-1.42 0-2.52 1.15-2.52 2.5v35.16c0 .68.26 1.3.76 1.77.45.48 1.05.75 1.75.75h45.18c1.4 0 2.5-1.15 2.5-2.5v-35.16c0-.7-.25-1.23-.7-1.7-.5-.55-1.1-.82-1.8-.82h-5.02v-12.26c-.05-4.4-1.86-8.2-5.27-10.98zm-24.85 10.98c0-5.7 5.67-10.3 12.55-10.3 3.4-.07 6.37.95 9.03 3.12 2.25 1.83 3.46 4.27 3.56 7.18v12.26h-25.1zm32.62 24.86h-7.53v5h7.53v5.03h-7.53v5.02h7.53v7.52h-40.15v-30.15h40.15z" stroke="#fff" stroke-opacity="0" stroke-width="2" fill="#fff"/><path d="M802.18 1776.7v6.92h5.03v-6.93c2.13-.78 3.63-2.28 4.4-4.42 1.4-3.8-.58-8.03-4.4-9.4-3.8-1.38-8.03.6-9.42 4.4-1.38 3.8.6 8.03 4.4 9.4zm2.52-9.6c1.5 0 2.72 1.2 2.73 2.7.02 1.5-1.2 2.7-2.7 2.74-1.48 0-2.7-1.2-2.73-2.7v-.08c.02-1.46 1.23-2.65 2.7-2.65z" stroke="#fff" stroke-opacity="0" stroke-width="2" fill="#fff"/><use xlink:href="#v" transform="matrix(1,0,0,1,680.6096739690212,1866.5795269975836) translate(15.018518518518562 28.444444444444436)"/><use xlink:href="#w" transform="matrix(1,0,0,1,680.6096739690212,1866.5795269975836) translate(105.6851851851852 28.444444444444436)"/><use xlink:href="#x" transform="matrix(1,0,0,1,680.6096739690212,1866.5795269975836) translate(51.56172839506175 71.11111111111109)"/><path d="M140 1660h188.17v188.17H140V1660z" stroke="#000" stroke-opacity="0" fill="url(#y)"/><path d="M293.12 1801.64c3.37 3.14 3.75 8.32.65 11.7-1.56 1.7-3.9 2.65-6.1 2.65-1.93 0-4-.73-5.55-2.06l-15.15-13.75c-4.4 2.77-9.45 4.34-15.02 4.34-15.8 0-28.6-12.9-28.6-28.6 0-15.8 12.8-28.58 28.6-28.58s28.6 12.8 28.6 28.6c0 4.33-.9 8.3-2.58 12.05zm-41.17-3.02c12.56 0 22.8-10.13 22.8-22.67 0-12.55-10.24-22.68-22.8-22.68-12.43 0-22.66 10.13-22.66 22.68 0 12.54 10.22 22.67 22.65 22.67zM192 1729.28c0 1.2 0 2.4.27 3.5 0 .84-.26 1.7-.78 2.3-.4.47-1.04.83-1.7.95-5.43 1.45-14.62 5.8-14.62 18.7 0 9.77 5.44 15.08 9.97 17.97 1.94 1.2 3.75 1.8 5.18 1.8h26.54v5.9h-26.54c-2.6 0-5.44-.95-8.3-2.76-4.65-2.9-12.68-9.77-12.68-22.92 0-15.56 10.36-21.47 16.84-23.64 0-.6-.14-1.2-.14-1.8 0-12.8 8.8-26.18 20.45-31 13.6-5.68 27.97-2.9 38.46 7.47 3.1 3.02 5.57 6.75 7.64 10.86 2.72-1.92 5.95-3 9.32-3 7.12 0 15.15 5.18 16.7 16.76 10.1 2.4 20.2 10 20.2 24.48 0 8.56-3.37 15.44-9.7 20.02l-3.38-4.82c4.8-3.38 7.25-8.57 7.25-15.2 0-14.6-12.44-18.33-17.75-19.18-.77-.12-1.42-.6-1.94-1.2-.38-.6-.5-1.33-.38-2.05-.77-9.04-6.08-13.02-11-13.02-3.1 0-6.1 1.57-8.03 4.22-.65.85-1.7 1.33-2.73 1.1-1.16-.13-2.07-.86-2.45-1.94-1.82-5.07-4.54-9.4-7.9-12.8-4.28-4.2-15.8-13.14-32.1-6.26-9.33 3.86-16.7 15.2-16.7 25.57zm77.95 46.68c0 9.9-8.03 17.85-18 17.85-9.84 0-17.86-7.96-17.86-17.85 0-9.9 8-17.85 17.85-17.85 9.97 0 18 7.96 18 17.85zm-5.96 0c0-6.63-5.32-12.06-12.05-12.06-6.6 0-12.04 5.4-12.04 12.05 0 6.63 5.45 11.94 12.05 11.94 6.73 0 12.04-5.32 12.04-11.95zm25.24 30.03l-14.37-12.9c-1.04 1.2-2.07 2.4-3.1 3.5l14.36 12.9c.9.96 2.46.85 3.24-.12.9-.96.77-2.4-.13-3.38z" stroke="#000" stroke-opacity="0" fill="#fff"/><use xlink:href="#z" transform="matrix(1,0,0,1,110,1857.1709780929366) translate(83.8524691358025 28.622222222222213)"/><use xlink:href="#A" transform="matrix(1,0,0,1,110,1857.1709780929366) translate(21.14197530864203 71.55555555555554)"/><use xlink:href="#B" transform="matrix(1,0,0,1,110,1857.1709780929366) translate(21.3904320987655 114.48888888888885)"/><path d="M995.9 1671.76h188.2v188.17H995.9v-188.17z" stroke="#fff" stroke-opacity="0" fill="#d6242d"/><path d="M1077.45 1793.44h47.67v5.02h-47.66v-5.02zM1054.88 1793.44h12.54v5.02h-12.55v-5.02zM1077.45 1803.48h30.1v5.02h-30.1v-5.02zM1054.88 1803.48h12.54v5.02h-12.55v-5.02zM1029.8 1723.2h120.4v5h-120.4v-5z" stroke="#fff" stroke-opacity="0" fill="#fff"/><path d="M1150.2 1823.55h-12.53v-4.96h10.54v-105.4h-115.9v105.4h80.28v4.95h-82.8c-1.38 0-2.5-1.15-2.5-2.54v-110.33c0-1.38 1.13-2.53 2.5-2.53h120.3c1.4-.12 2.52.92 2.64 2.3V1821c0 .7-.25 1.28-.75 1.86-.5.46-1 .7-1.76.7z" stroke="#fff" stroke-opacity="0" fill="#fff"/><path d="M1075.5 1783.6c-.58 0-1-.14-1.46-.44-.83-.6-1.2-1.54-1-2.53l2.5-14.82-10.83-10.53c-.92-1-.87-2.6.12-3.54.36-.4.83-.6 1.35-.7l14.9-2.18 6.67-13.52c.42-.85 1.25-1.4 2.24-1.4 1 0 1.82.5 2.24 1.4l6.67 13.52 15.04 2.14c1.4.2 2.35 1.43 2.2 2.82-.1.6-.37 1.05-.8 1.45l-10.77 10.54 2.5 14.88c.2 1-.16 1.94-1 2.48-.77.6-1.76.65-2.6.2l-13.38-7-13.35 7c-.42.2-.78.3-1.25.25zm-3.6-28.33l8.13 7.9c.57.6.83 1.35.73 2.2l-1.93 11.18 10.06-5.27c.72-.4 1.55-.4 2.28 0l10.05 5.22-1.87-11.14c-.16-.84.05-1.64.67-2.24l8.13-7.9-11.2-1.6c-.88-.1-1.56-.6-1.93-1.4l-5-10.03-5 10.18c-.4.75-1.04 1.24-1.93 1.34z" stroke="#fff" stroke-opacity="0" fill="#fff"/><use xlink:href="#C" transform="matrix(1,0,0,1,965.9145109535317,1868.9316642237452) translate(84.10493827160495 28.444444444444436)"/><use xlink:href="#D" transform="matrix(1,0,0,1,965.9145109535317,1868.9316642237452) translate(37.78395061728396 71.11111111111109)"/><use xlink:href="#x" transform="matrix(1,0,0,1,965.9145109535317,1868.9316642237452) translate(51.56172839506175 113.77777777777774)"/><path d="M1320.93 1733.74l-20.82-2.33V1709l28.14 5.8-7.3 18.94z" fill="#759c3e"/><path d="M1322.37 1736.62l-41.15 2.74v-23.38l18.9-6.98 22.25 27.62zM1429.7 1733.74l20.82-2.33V1709l-28.17 5.8 7.35 18.94z" fill="#4b612c"/><path d="M1428.22 1736.62l41.15 2.74v-23.38l-18.85-6.98-22.3 27.62z" fill="#759c3e"/><path d="M1335.5 1695.8l-21.55 32.63-32.73 7.23v20.85l37.92 60.38 56.15 32.46 38.98-36.16v-100.9l-39-31.1-39.77 14.62z" fill="#4b612c"/><path d="M1469.4 1756.5v-20.85l-32.75-7.23-21.55-32.62-39.8-14.63v168.15l56.08-32.45 38-60.37z" fill="#759c3e"/><use xlink:href="#v" transform="matrix(1,0,0,1,1281.2193479380421,1849.3402131283922) translate(9.759259259259295 28.444444444444436)"/><use xlink:href="#E" transform="matrix(1,0,0,1,1281.2193479380421,1849.3402131283922) translate(100.42592592592594 28.444444444444436)"/><path d="M1566.52 1678.82h188.17V1867H1566.5V1678.8z" stroke="#fff" stroke-opacity="0" fill="#693cc5"/><path d="M1635 1786.57c3.33 1.17 6.3 1.72 9.84 1.83 2.23.18 4.2-.37 6.04-1.7 1.44-1.34 2.16-3.03 2.07-5 .2-2.06-.46-3.9-1.95-5.35-1.98-1.32-4.05-1.83-6.42-1.65-2.84.04-5.23.18-8.02.5v-3.54l.98-15.5h18.88v4.18h-14.63l-.68 10.5c1.74-.32 3.23-.46 5.02-.46 3.32-.22 6.2.77 8.74 2.93 2.26 2.2 3.33 5 3.14 8.14.12 3.26-1.14 6.12-3.65 8.2-2.86 2.27-6.04 3.3-9.7 3.15-3.58 0-6.6-.63-9.88-2.1zM1676 1771.48H1676.92c3.1-.2 5.84.66 8.22 2.68 2.15 2.02 3.17 4.6 3 7.52.1 3.23-1.2 6.02-3.7 8.07-2.93 2.2-6.13 3.2-9.8 3-3.48 0-6.44-.65-9.62-2.05v-4.14c3.25 1.17 6.16 1.72 9.6 1.83 2.28.18 4.25-.4 6.08-1.73 1.5-1.32 2.24-3.05 2.1-5.03 0-4.18-2.6-6.27-7.9-6.27-1.75 0-3.25.08-5 .26v-3.4l10.87-11.86h-15.2v-4.25h21.08v4.1z" stroke="#fff" stroke-opacity="0" fill="#fff"/><path d="M1660.62 1820.57c-.5 0-.9-.1-1.3-.37-8.52-5-16.55-8.08-26.27-10.03-5.32-.93-22.57-5-22.57-17.55 0-5.66 2.2-9.47 5-14.2 4.33-6.4 6.53-12.9 6.83-20.62 0-7.42-1.9-13.65-6-19.87-.6-.93-.5-2.04.2-2.97l4-5c.8-.94 2.12-1.22 3.22-.57 5.4 3.15 10.63 4.54 16.95 4.63 6.9.1 12.83-1.76 18.45-5.85.9-.65 2.1-.65 2.9 0 5.72 4.1 11.64 5.94 18.56 5.85 6.22-.1 11.53-1.58 16.95-4.64 1.1-.66 2.4-.38 3.2.55l4.02 5c.7.85.8 2.05.2 2.98-4.1 6.13-5.92 12.44-6.02 19.87 0 8.92 3.6 15.05 6.82 20.62 2.8 4.73 5 8.54 5 14.2 0 12.54-17.23 16.62-22.55 17.55-9.73 1.95-17.75 4.92-26.27 10.03-.4.28-.8.37-1.3.37zm-39.1-84.03c3.9 6.68 5.7 13.28 5.7 21 0 10.3-4.1 17.44-7.5 23.1-2.52 4.46-4.23 7.43-4.23 11.7 0 8.92 15.34 12.17 18.35 12.73 9.93 1.95 17.95 5 26.67 10.02 8.73-5.02 16.85-8.08 26.68-10.03 3.1-.56 18.45-3.8 18.45-12.72 0-4.28-1.7-7.25-4.3-11.7-3.32-5.67-7.53-12.82-7.53-23.13.1-7.7 1.9-14.3 5.9-20.98l-1.6-1.95c-5.6 2.87-11.12 4.26-17.54 4.26-7.42.1-13.74-1.67-20.06-5.76-6.22 4.1-12.63 5.85-20.06 5.76-6.4 0-11.83-1.4-17.54-4.27z" stroke="#fff" stroke-opacity="0" fill="#fff"/><path d="M1660.66 1835.63c-.63 0-1.13-.13-1.63-.5-8.9-6.4-17.55-10.3-28.2-12.54-20.68-3.77-32.97-15.18-32.97-30.23.25-7.64 2.26-14.16 6.64-20.56 2.76-4.63 5.02-8.64 5.02-14.15-.25-7.65-3.4-14.05-9.15-19.2-1.13-.74-1.38-2.37-.5-3.5.12 0 .12-.12.12-.12 0-.25 14.78-17.93 18.17-22.44.37-.76 1.13-1.14 1.88-1.14.88 0 1.5.25 2.13.88 4.76 5.64 10.9 8.77 18.42 9.15 7.02 0 12.54-3.14 17.8-10.04 1-1.13 2.76-1.38 3.9-.38l.37.38c5.26 7.02 10.77 10.03 17.8 10.03 7.5-.4 13.66-3.52 18.42-9.16.62-.63 1.24-.88 2.12-.88.75 0 1.5.38 1.88 1.13 3.4 4.5 18.05 22.18 18.18 22.43.37.5.62 1.13.5 1.88 0 .76-.38 1.26-.88 1.76-5.77 5.14-8.9 11.54-9.15 19.2 0 5.5 2.38 9.5 5 14.15 4.4 6.4 6.4 12.93 6.66 20.57 0 15.05-12.28 26.46-32.96 30.22-10.65 2.24-19.3 6-28.2 12.53-.38.25-.88.5-1.38.5zm-55.03-99.42c6.02 6.03 9.03 13.05 9.15 21.45 0 6.9-2.88 11.9-5.76 16.8-3 5.4-5.9 10.28-5.9 18.05 0 18.3 21.94 23.7 28.6 24.95h-.02c10.9 2.25 19.8 6 28.96 12.28 9.02-6.27 17.92-10.03 28.83-12.28 6.63-1.26 28.57-6.65 28.57-24.95 0-7.77-2.88-12.54-5.9-18.05-2.88-5.02-5.76-10.03-5.76-16.8.14-8.4 3.14-15.42 9.16-21.44-3.38-4-10.9-13.16-14.9-18.3h-.02c-5.63 5.52-12.28 8.4-20.05 8.65-8.16 0-15.05-3.38-20.07-9.65-5.13 6.27-12.03 9.65-20.18 9.65-7.77-.25-14.4-3.13-20.05-8.65-3.64 5.14-11.28 14.3-14.67 18.3z" stroke="#fff" stroke-opacity="0" fill="#fff"/><use xlink:href="#F" transform="matrix(1,0,0,1,1536.5241849225526,1875.9880759022305) translate(0.4012345679012981 28.444444444444436)"/><use xlink:href="#G" transform="matrix(1,0,0,1,1536.5241849225526,1875.9880759022305) translate(148.2530864197531 28.444444444444436)"/><use xlink:href="#H" transform="matrix(1,0,0,1,1536.5241849225526,1875.9880759022305) translate(104.74691358024693 71.11111111111109)"/><path d="M1160.67 567.28c3.13-2.63 6.12-5.25 9.25-7.9.95-.92 2.17-1.86 3.12-2.8-.8-1.04-2.17-1.82-3.4-2.24-2.3-.9-4.62-.62-6.8.65-2.85 1.64-4.07 4.27-4.07 7.54.14 1.3.4 2.53 1.1 3.63.26.4.53.75.8 1.1m3.54 2.5c1.5.52 3.27.46 4.76.17.82-.33 2.86-1.2 3.54-1.07h.13l.14.06c.4.23.82.52 1.1 1 .53 1.08.26 2.15-.83 2.76l-.27.22c-3.94 2.27-8.15 1.95-11.96-.16-1.9-1-3.25-2.53-4.34-4.35l-.27-.4c-2.46-4.4-2.2-8.96.67-13.1.95-1.44 2.17-2.57 3.67-3.4l.68-.34c3.67-2.14 7.6-2 11.4-.13 1.92 1 3.68 2.5 4.77 4.48l.13.36c.95 1.43-.14 2.7-1.23 3.54-1.36 1-2.58 2.2-3.8 3.24-2.86 2.37-5.57 4.77-8.3 7.13zm29.37-19.84h.4c1.23 0 2.04.84 2.04 2.07 0 1.72-1.62 2.14-2.98 2.14-1.9 0-3.67 1.14-4.9 2.4-1.62 1.56-2.3 3.57-2.3 5.8v10c0 1.16-.68 2.07-1.9 2.07h-.4c-1.1 0-1.9-.9-1.9-2.06v-10.58c0-4.05 2.02-7.4 5.3-9.7 2.02-1.38 4.2-2.13 6.65-2.13zm-51.38 7.1c1.62-1.6 3.1-3.2 4.74-4.8.55-.42 2.18-2.3 2.86-2.3h.82v.03c.95.2 1.63.78 1.63 1.78v.43c0 .68-.68 1.5-1.23 1.98-.95 1-1.9 1.97-2.85 2.95l-5.03 5.05c2.17 2.18 4.35 4.32 6.4 6.5.67.6 1.2 1.22 1.76 1.8.27.23.54.5.67.82.28.26.28.58.28.9v.56c-.14.94-.82 1.68-1.77 1.68h-.4c-.7 0-1.5-.77-1.9-1.2-.96-.9-1.9-1.87-2.87-2.8l-3.1-3.12v5c0 1.13-.7 2.07-1.9 2.07h-.3c-1.2 0-1.9-.94-1.9-2.08V544.2c0-1.15.7-2.05 1.9-2.05h.3c1.2 0 1.9.9 1.9 2.04v12.83zm-13.47-2.8c-.54-.28-1.77-.38-2.44-.4-3.4-.14-5.86 1.8-7.35 4.85-.55 1.04-.68 2.18-.68 3.35 0 3.53 1.76 6 4.9 7.52 1.2.55 2.7.65 3.93.65 1.1 0 2.72-.68 3.67-1.14l.14-.1h.82v.04c.95.2 1.77.77 1.77 1.78v.42c0 2.53-4.63 3.08-6.4 3.2-6.25.43-10.87-2.97-12.64-8.87-.27-1-.4-2.05-.4-3.12v-.8c0-4.47 2.3-8.04 6.1-10.3 1.78-1.08 3.68-1.63 5.85-1.63h.83c2.17 0 4.2.65 5.98 1.88l.15.1.13.16c.14.33.4.72.4 1.1v.4c0 1.07-.8 1.62-1.76 1.82l-.13.03h-.28c-.55-.03-1.9-.65-2.6-.9zm-37.5 7.86c0 3.13 1.48 5.44 4.2 7.1 1.22.74 2.58 1.1 4.08 1.1 3 0 5.3-1.6 6.94-4.22.82-1.23 1.1-2.63 1.1-4.06 0-2.95-1.37-5.15-3.82-6.77-1.36-.9-2.72-1.33-4.35-1.33-3.4 0-5.98 1.75-7.47 4.83-.4 1.07-.68 2.17-.68 3.34zm7.74-12.33h.54c4.77 0 8.44 2.33 10.75 6.5.95 1.67 1.36 3.5 1.36 5.4v.84c0 4.5-2.17 8.05-5.97 10.32-1.77 1.04-3.8 1.6-5.85 1.6h-.8c-4.5 0-8.03-2.2-10.34-6.07-.96-1.78-1.5-3.76-1.5-5.84v-.83c0-4.48 2.17-8 5.98-10.3 1.77-1.08 3.8-1.6 5.85-1.6zm-34.8 12.32c0 3.23 1.63 5.66 4.48 7.22 1.1.62 2.32.97 3.67.97 3.13 0 5.44-1.5 7.07-4.2.8-1.25 1.08-2.62 1.08-4.08 0-2.82-1.22-5-3.53-6.64-1.36-.98-2.86-1.46-4.63-1.46-3.4 0-5.84 1.75-7.33 4.83-.56 1.07-.83 2.17-.83 3.34zm16.3-9.25v-8.73c0-1.16.83-2.07 1.9-2.07h.42c1.2 0 1.9.9 1.9 2.07v18.4c0 4.47-2.18 8.03-6.12 10.3-1.77 1.04-3.67 1.6-5.85 1.6h-.8c-4.5 0-8.03-2.2-10.2-6.07-1.1-1.78-1.64-3.76-1.64-5.84v-.83c0-4.48 2.17-8.04 6.1-10.3 1.78-1.08 3.68-1.6 5.72-1.6h.8c3.14 0 5.72 1.16 7.76 3.08zM1138.42 484.42h12.26v12.45h6.07c2.86 0 5.83-.47 8.45-1.4 1.3-.46 2.86-1.08 4.17-1.85-1.8-2.24-2.62-5.1-2.86-7.88-.35-3.87.37-8.8 3-11.75l1.3-1.48 1.43 1.16c3.93 3.1 7.14 7.42 7.62 12.37 4.64-1.4 10.12-1 14.16 1.3l1.68 1-.83 1.72c-3.45 6.72-10.72 8.8-17.74 8.42-10.47 26.35-33.45 38.8-61.2 38.8-14.4 0-27.6-5.42-35.1-18.17l-.13-.24-1.07-2.25c-2.5-5.64-3.33-11.75-2.85-17.93l.23-1.85h10.36v-12.45h12.14v-12.2h24.4V460h14.54v24.42z" stroke="#000" stroke-opacity="0" fill="#394d54"/><path d="M1177.9 489.03c.8-6.36-4-11.33-6.86-13.73-3.43 3.95-4 14.2 1.37 18.58-2.96 2.64-9.25 5.04-15.65 5.04h-77.98c-.58 6.72.57 12.9 3.3 18.17l.8 1.6c.6.97 1.27 1.87 1.96 2.76 3.2.25 6.06.3 8.8.25 5.38-.12 9.6-.77 12.92-1.9.46-.13 1.03.1 1.26.6.12.47-.1 1-.56 1.2-.46.16-.92.28-1.37.4-2.63.73-5.38 1.26-9.04 1.5h-.23c-.1 0-.22 0-.34.06-1.37.06-2.97.06-4.46.06-1.7 0-3.43 0-5.26-.12l-.1.06c6.5 7.32 16.68 11.7 29.37 11.7 27 0 49.87-12 59.93-38.86 7.2.72 14.18-1.14 17.27-7.25-5.04-2.94-11.44-1.98-15.1-.12z" stroke="#000" stroke-opacity="0" fill="#00aada"/><path d="M1177.88 489c.76-6.33-4-11.33-6.84-13.7-3.4 3.9-3.98 14.23 1.33 18.56-2.94 2.68-9.2 5.05-15.57 5.05h-73.4c-.27 10.27 3.53 18.1 10.27 22.8 5.3-.1 9.6-.78 12.9-1.9.48-.16 1.05.1 1.15.6.2.47 0 1-.57 1.2-.38.15-.86.25-1.33.4-2.56.73-5.6 1.3-9.2 1.55l-.1-.1c9.2 4.75 22.5 4.7 37.78-1.18 17.1-6.55 32.95-19.13 44.06-33.46-.2.06-.3.16-.48.2z" stroke="#000" stroke-opacity="0" fill="#24b8eb"/><path d="M1078.96 507.06c.46 3.58 1.56 6.96 3.12 10.04l.83 1.6c.55.96 1.2 1.9 1.84 2.76 3.2.23 6.23.3 8.9.23 5.3-.12 9.62-.74 12.92-1.9.46-.17 1 .1 1.2.6.17.47-.1 1-.56 1.18-.46.17-.92.3-1.37.42-2.57.76-5.6 1.27-9.17 1.5-.1.02-.37.02-.46.02-1.38.1-2.93.12-4.5.12-1.64 0-3.38-.03-5.3-.12 6.5 7.33 16.77 11.73 29.5 11.73 23.02 0 43.1-8.8 54.75-28.2h-91.7z" stroke="#000" stroke-opacity="0" fill="#008bb8"/><path d="M1084.13 507.06c1.38 6.3 4.73 11.26 9.53 14.63 5.25-.1 9.6-.75 12.87-1.9.53-.15 1.07.1 1.22.58.15.5-.08 1.03-.53 1.2-.46.15-.92.3-1.38.42-2.58.76-5.7 1.3-9.3 1.5 9.23 4.73 22.48 4.65 37.72-1.22 9.22-3.55 18.05-8.84 26.05-15.22h-76.17z" stroke="#000" stroke-opacity="0" fill="#039bc6"/><path d="M1098.23 487.32h.83v8.82h-.83v-8.82zm-1.6 0h.86v8.82h-.87v-8.82zm-1.6 0h.87v8.82h-.86v-8.82zm-1.6 0h.87v8.82h-.87v-8.82zm-1.6 0h.88v8.82h-.87v-8.82zm-1.56 0h.84v8.82h-.83v-8.82zm-.87-.88h10.54v10.58h-10.54v-10.58zM1110.4 475.1h.83v8.83h-.83v-8.82zm-1.6 0h.86v8.83h-.87v-8.82zm-1.6 0h.87v8.83h-.87v-8.82zm-1.6 0h.86v8.83h-.86v-8.82zm-1.6 0h.87v8.83h-.86v-8.82zm-1.57 0h.84v8.83h-.84v-8.82zm-.87-.87h10.54v10.58h-10.54v-10.56z" stroke="#000" stroke-opacity="0" fill="#00acd3"/><path d="M1110.4 487.32h.83v8.82h-.83v-8.82zm-1.6 0h.86v8.82h-.87v-8.82zm-1.6 0h.87v8.82h-.87v-8.82zm-1.6 0h.86v8.82h-.86v-8.82zm-1.6 0h.87v8.82h-.86v-8.82zm-1.57 0h.84v8.82h-.84v-8.82zm-.87-.88h10.54v10.58h-10.54v-10.58z" stroke="#000" stroke-opacity="0" fill="#20c2ef"/><path d="M1122.56 487.32h.83v8.82h-.84v-8.82zm-1.6 0h.86v8.82h-.86v-8.82zm-1.6 0h.87v8.82h-.86v-8.82zm-1.6 0h.87v8.82h-.87v-8.82zm-1.6 0h.88v8.82h-.87v-8.82zm-1.56 0h.83v8.82h-.83v-8.82zm-.88-.88h10.55v10.58h-10.55v-10.58z" stroke="#000" stroke-opacity="0" fill="#00acd3"/><path d="M1122.56 475.1h.83v8.83h-.84v-8.82zm-1.6 0h.86v8.83h-.86v-8.82zm-1.6 0h.87v8.83h-.86v-8.82zm-1.6 0h.87v8.83h-.87v-8.82zm-1.6 0h.88v8.83h-.87v-8.82zm-1.56 0h.83v8.83h-.83v-8.82zm-.88-.87h10.55v10.58h-10.55v-10.56zM1134.72 487.32h.84v8.82h-.84v-8.82zm-1.6 0h.87l-.02 8.82h-.86v-8.82zm-1.6 0h.87v8.82h-.87v-8.82zm-1.6 0h.87v8.82h-.88v-8.82zm-1.6 0h.88v8.82h-.87v-8.82zm-1.56 0h.84v8.82h-.84v-8.82zm-.87-.88h10.53v10.58h-10.54v-10.58z" stroke="#000" stroke-opacity="0" fill="#20c2ef"/><path d="M1134.72 475.1h.84v8.83h-.84v-8.82zm-1.6 0h.87l-.02 8.83h-.86v-8.82zm-1.6 0h.87v8.83h-.87v-8.82zm-1.6 0h.87v8.83h-.88v-8.82zm-1.6 0h.88v8.83h-.87v-8.82zm-1.56 0h.84v8.83h-.84v-8.82zm-.87-.87h10.53v10.58h-10.54v-10.56z" stroke="#000" stroke-opacity="0" fill="#00acd3"/><path d="M1134.72 462.9h.84v8.83h-.84v-8.82zm-1.6 0h.87l-.02 8.83h-.86v-8.82zm-1.6 0h.87v8.83h-.87v-8.82zm-1.6 0h.87v8.83h-.88v-8.82zm-1.6 0h.88v8.83h-.87v-8.82zm-1.56 0h.84v8.83h-.84v-8.82zm-.87-.87h10.53v10.58h-10.54v-10.57z" stroke="#000" stroke-opacity="0" fill="#20c2ef"/><path d="M1146.9 487.32h.82v8.82h-.83v-8.82zm-1.62 0h.87v8.82h-.87v-8.82zm-1.6 0h.88v8.82h-.87v-8.82zm-1.6 0h.88v8.82h-.87v-8.82zm-1.58 0h.86v8.82h-.86v-8.82zm-1.57 0h.83v8.82h-.83v-8.82zm-.88-.88h10.55v10.58h-10.55v-10.58z" stroke="#000" stroke-opacity="0" fill="#00acd3"/><path d="M1111.44 514.16c1.6 0 2.9 1.3 2.9 2.92 0 1.6-1.3 2.92-2.9 2.92-1.6 0-2.9-1.3-2.9-2.92 0-1.6 1.3-2.92 2.9-2.92" stroke="#000" stroke-opacity="0" fill="#d4edf1"/><path d="M1111.44 515c.27 0 .52.04.76.13-.26.15-.43.42-.43.74 0 .48.38.85.85.85.32 0 .6-.18.75-.44.1.25.16.52.16.8 0 1.15-.94 2.1-2.1 2.1-1.14 0-2.07-.94-2.07-2.1 0-1.15.93-2.1 2.08-2.1M1060 508.12h135.29c-2.98-.75-9.34-1.77-8.26-5.64-5.4 6.22-18.26 4.36-21.5 1.3-3.66 5.28-24.77 3.27-26.26-.84-4.6 5.36-18.67 5.36-23.27 0-1.48 4.1-22.58 6.12-26.23.84-3.25 3.06-16.1 4.92-21.52-1.3 1.1 3.88-5.27 4.9-8.25 5.64" stroke="#000" stroke-opacity="0" fill="#394d54"/><path d="M1119.17 535.18c-7.2-3.42-11.15-8.1-13.36-13.17-2.67.78-5.88 1.27-9.62 1.48-1.4.08-2.88.12-4.44.12-1.78 0-3.67-.06-5.65-.16 6.6 6.62 14.7 11.72 29.77 11.8 1.1 0 2.2 0 3.3-.06z" stroke="#000" stroke-opacity="0" fill="#bfdbe0"/><path d="M1108.5 526.7c-1-1.35-1.97-3.06-2.68-4.7-2.68.77-5.9 1.26-9.63 1.48 2.56 1.4 6.23 2.7 12.3 3.23z" stroke="#000" stroke-opacity="0" fill="#d4edf1"/><use xlink:href="#I" transform="matrix(1,0,0,1,1030,583.4770736733642) translate(70.05 14.4)"/><path d="M1160.67 1147.28c3.13-2.63 6.12-5.25 9.25-7.9.95-.92 2.17-1.86 3.12-2.8-.8-1.04-2.17-1.82-3.4-2.24-2.3-.9-4.62-.62-6.8.65-2.85 1.64-4.07 4.27-4.07 7.54.14 1.3.4 2.53 1.1 3.63.26.4.53.75.8 1.1m3.54 2.5c1.5.52 3.27.46 4.76.17.82-.33 2.86-1.2 3.54-1.07h.13l.14.06c.4.23.82.52 1.1 1 .53 1.08.26 2.15-.83 2.76l-.27.22c-3.94 2.27-8.15 1.95-11.96-.16-1.9-1-3.25-2.53-4.34-4.35l-.27-.4c-2.46-4.4-2.2-8.96.67-13.1.95-1.44 2.17-2.57 3.67-3.42l.68-.32c3.67-2.14 7.6-2 11.4-.13 1.92 1 3.68 2.5 4.77 4.48l.13.36c.95 1.43-.14 2.7-1.23 3.54-1.36 1-2.58 2.2-3.8 3.24-2.86 2.37-5.57 4.77-8.3 7.13zm29.37-19.84h.4c1.23 0 2.04.84 2.04 2.07 0 1.72-1.62 2.14-2.98 2.14-1.9 0-3.67 1.14-4.9 2.4-1.62 1.56-2.3 3.57-2.3 5.8v10c0 1.16-.68 2.07-1.9 2.07h-.4c-1.1 0-1.9-.9-1.9-2.06v-10.57c0-4.06 2.02-7.4 5.3-9.7 2.02-1.4 4.2-2.14 6.65-2.14zm-51.38 7.1c1.62-1.6 3.1-3.2 4.74-4.8.55-.42 2.18-2.3 2.86-2.3h.82v.03c.95.2 1.63.78 1.63 1.78v.43c0 .68-.68 1.5-1.23 1.97-.95 1-1.9 1.98-2.85 2.95l-5.03 5.05c2.17 2.18 4.35 4.32 6.4 6.5.67.6 1.2 1.22 1.76 1.8.27.23.54.5.67.82.28.26.28.58.28.9v.56c-.14.94-.82 1.68-1.77 1.68h-.4c-.7 0-1.5-.77-1.9-1.2-.96-.9-1.9-1.87-2.87-2.8l-3.1-3.12v5c0 1.13-.7 2.07-1.9 2.07h-.3c-1.2 0-1.9-.94-1.9-2.08v-28.08c0-1.15.7-2.05 1.9-2.05h.3c1.2 0 1.9.9 1.9 2.04v12.83zm-13.47-2.8c-.54-.28-1.77-.38-2.44-.4-3.4-.14-5.86 1.8-7.35 4.85-.55 1.04-.68 2.18-.68 3.35 0 3.53 1.76 6 4.9 7.52 1.2.55 2.7.65 3.93.65 1.1 0 2.72-.68 3.67-1.14l.14-.1h.82v.04c.95.2 1.77.78 1.77 1.78v.42c0 2.53-4.63 3.08-6.4 3.2-6.25.43-10.87-2.97-12.64-8.87-.27-1-.4-2.05-.4-3.12v-.8c0-4.47 2.3-8.04 6.1-10.3 1.78-1.08 3.68-1.63 5.85-1.63h.83c2.17 0 4.2.65 5.98 1.88l.15.1.13.16c.14.33.4.72.4 1.1v.4c0 1.07-.8 1.62-1.76 1.82l-.13.03h-.28c-.55-.03-1.9-.65-2.6-.9zm-37.5 7.86c0 3.13 1.48 5.44 4.2 7.1 1.22.74 2.58 1.1 4.08 1.1 3 0 5.3-1.6 6.94-4.22.82-1.23 1.1-2.63 1.1-4.05 0-2.96-1.37-5.16-3.82-6.78-1.36-.9-2.72-1.33-4.35-1.33-3.4 0-5.98 1.75-7.47 4.83-.4 1.07-.68 2.17-.68 3.34zm7.74-12.33h.54c4.77 0 8.44 2.33 10.75 6.52.95 1.64 1.36 3.46 1.36 5.37v.84c0 4.5-2.17 8.05-5.97 10.32-1.77 1.04-3.8 1.6-5.85 1.6h-.8c-4.5 0-8.03-2.2-10.34-6.07-.96-1.78-1.5-3.76-1.5-5.84v-.83c0-4.48 2.17-8 5.98-10.3 1.77-1.08 3.8-1.6 5.85-1.6zm-34.8 12.32c0 3.23 1.63 5.66 4.48 7.22 1.1.62 2.32.97 3.67.97 3.13 0 5.44-1.5 7.07-4.2.8-1.25 1.08-2.62 1.08-4.07 0-2.83-1.22-5-3.53-6.65-1.36-.98-2.86-1.46-4.63-1.46-3.4 0-5.84 1.75-7.33 4.83-.56 1.07-.83 2.17-.83 3.34zm16.3-9.25v-8.73c0-1.16.83-2.07 1.9-2.07h.42c1.2 0 1.9.9 1.9 2.07v18.4c0 4.47-2.18 8.03-6.12 10.3-1.77 1.04-3.67 1.6-5.85 1.6h-.8c-4.5 0-8.03-2.2-10.2-6.07-1.1-1.78-1.64-3.76-1.64-5.84v-.83c0-4.48 2.17-8.04 6.1-10.3 1.78-1.08 3.68-1.6 5.72-1.6h.8c3.14 0 5.72 1.16 7.76 3.08zM1138.42 1064.42h12.26v12.45h6.07c2.86 0 5.83-.47 8.45-1.4 1.3-.46 2.86-1.08 4.17-1.85-1.8-2.24-2.62-5.1-2.86-7.88-.35-3.87.37-8.8 3-11.75l1.3-1.48 1.43 1.16c3.93 3.1 7.14 7.42 7.62 12.37 4.64-1.4 10.12-1 14.16 1.3l1.68 1.02-.83 1.7c-3.45 6.72-10.72 8.8-17.74 8.42-10.47 26.35-33.45 38.8-61.2 38.8-14.4 0-27.6-5.42-35.1-18.17l-.13-.24-1.07-2.25c-2.5-5.64-3.33-11.75-2.85-17.93l.23-1.85h10.36v-12.45h12.14v-12.2h24.4V1040h14.54v24.42z" stroke="#000" stroke-opacity="0" fill="#394d54"/><path d="M1177.9 1069.03c.8-6.36-4-11.34-6.86-13.73-3.43 3.95-4 14.2 1.37 18.58-2.96 2.64-9.25 5.04-15.65 5.04h-77.98c-.58 6.72.57 12.9 3.3 18.17l.8 1.6c.6.97 1.27 1.87 1.96 2.76 3.2.24 6.06.3 8.8.24 5.38-.12 9.6-.77 12.92-1.9.46-.13 1.03.1 1.26.6.12.47-.1 1-.56 1.18-.46.2-.92.3-1.37.43-2.63.72-5.38 1.26-9.04 1.5h-.23c-.1 0-.22 0-.34.06-1.37.06-2.97.06-4.46.06-1.7 0-3.43 0-5.26-.12l-.1.06c6.5 7.32 16.68 11.7 29.37 11.7 27 0 49.87-12 59.93-38.86 7.2.72 14.18-1.14 17.27-7.25-5.04-2.94-11.44-1.98-15.1-.12z" stroke="#000" stroke-opacity="0" fill="#00aada"/><path d="M1177.88 1069c.76-6.33-4-11.33-6.84-13.7-3.4 3.9-3.98 14.23 1.33 18.56-2.94 2.68-9.2 5.05-15.57 5.05h-73.4c-.27 10.27 3.53 18.1 10.27 22.8 5.3-.1 9.6-.78 12.9-1.9.48-.16 1.05.1 1.15.6.2.47 0 1-.57 1.2-.38.15-.86.25-1.33.4-2.56.73-5.6 1.3-9.2 1.56l-.1-.1c9.2 4.73 22.5 4.68 37.78-1.2 17.1-6.54 32.95-19.12 44.06-33.45-.2.06-.3.16-.48.2z" stroke="#000" stroke-opacity="0" fill="#24b8eb"/><path d="M1078.96 1087.06c.46 3.58 1.56 6.96 3.12 10.04l.83 1.6c.55.96 1.2 1.9 1.84 2.76 3.2.23 6.23.3 8.9.23 5.3-.12 9.62-.74 12.92-1.9.46-.17 1 .1 1.2.6.17.47-.1 1-.56 1.18-.46.17-.92.3-1.37.42-2.57.76-5.6 1.27-9.17 1.5-.1.02-.37.02-.46.02-1.38.1-2.93.12-4.5.12-1.64 0-3.38-.03-5.3-.12 6.5 7.33 16.77 11.73 29.5 11.73 23.02 0 43.1-8.8 54.75-28.2h-91.7z" stroke="#000" stroke-opacity="0" fill="#008bb8"/><path d="M1084.13 1087.06c1.38 6.3 4.73 11.26 9.53 14.63 5.25-.1 9.6-.75 12.87-1.9.53-.15 1.07.1 1.22.58.15.5-.08 1.03-.53 1.2-.46.15-.92.3-1.38.42-2.58.76-5.7 1.3-9.3 1.5 9.23 4.72 22.48 4.65 37.72-1.22 9.22-3.55 18.05-8.84 26.05-15.22h-76.17z" stroke="#000" stroke-opacity="0" fill="#039bc6"/><path d="M1098.23 1067.32h.83v8.82h-.83v-8.82zm-1.6 0h.86v8.82h-.87v-8.82zm-1.6 0h.87v8.82h-.86v-8.82zm-1.6 0h.87v8.82h-.87v-8.82zm-1.6 0h.88v8.82h-.87v-8.82zm-1.56 0h.84v8.82h-.83v-8.82zm-.87-.88h10.54v10.58h-10.54v-10.58zM1110.4 1055.1h.83v8.83h-.83v-8.82zm-1.6 0h.86v8.83h-.87v-8.82zm-1.6 0h.87v8.83h-.87v-8.82zm-1.6 0h.86v8.83h-.86v-8.82zm-1.6 0h.87v8.83h-.86v-8.82zm-1.57 0h.84v8.83h-.84v-8.82zm-.87-.87h10.54v10.58h-10.54v-10.57z" stroke="#000" stroke-opacity="0" fill="#00acd3"/><path d="M1110.4 1067.32h.83v8.82h-.83v-8.82zm-1.6 0h.86v8.82h-.87v-8.82zm-1.6 0h.87v8.82h-.87v-8.82zm-1.6 0h.86v8.82h-.86v-8.82zm-1.6 0h.87v8.82h-.86v-8.82zm-1.57 0h.84v8.82h-.84v-8.82zm-.87-.88h10.54v10.58h-10.54v-10.58z" stroke="#000" stroke-opacity="0" fill="#20c2ef"/><path d="M1122.56 1067.32h.83v8.82h-.84v-8.82zm-1.6 0h.86v8.82h-.86v-8.82zm-1.6 0h.87v8.82h-.86v-8.82zm-1.6 0h.87v8.82h-.87v-8.82zm-1.6 0h.88v8.82h-.87v-8.82zm-1.56 0h.83v8.82h-.83v-8.82zm-.88-.88h10.55v10.58h-10.55v-10.58z" stroke="#000" stroke-opacity="0" fill="#00acd3"/><path d="M1122.56 1055.1h.83v8.83h-.84v-8.82zm-1.6 0h.86v8.83h-.86v-8.82zm-1.6 0h.87v8.83h-.86v-8.82zm-1.6 0h.87v8.83h-.87v-8.82zm-1.6 0h.88v8.83h-.87v-8.82zm-1.56 0h.83v8.83h-.83v-8.82zm-.88-.87h10.55v10.58h-10.55v-10.57zM1134.72 1067.32h.84v8.82h-.84v-8.82zm-1.6 0h.87l-.02 8.82h-.86v-8.82zm-1.6 0h.87v8.82h-.87v-8.82zm-1.6 0h.87v8.82h-.88v-8.82zm-1.6 0h.88v8.82h-.87v-8.82zm-1.56 0h.84v8.82h-.84v-8.82zm-.87-.88h10.53v10.58h-10.54v-10.58z" stroke="#000" stroke-opacity="0" fill="#20c2ef"/><path d="M1134.72 1055.1h.84v8.83h-.84v-8.82zm-1.6 0h.87l-.02 8.83h-.86v-8.82zm-1.6 0h.87v8.83h-.87v-8.82zm-1.6 0h.87v8.83h-.88v-8.82zm-1.6 0h.88v8.83h-.87v-8.82zm-1.56 0h.84v8.83h-.84v-8.82zm-.87-.87h10.53v10.58h-10.54v-10.57z" stroke="#000" stroke-opacity="0" fill="#00acd3"/><path d="M1134.72 1042.9h.84v8.83h-.84v-8.82zm-1.6 0h.87l-.02 8.83h-.86v-8.82zm-1.6 0h.87v8.83h-.87v-8.82zm-1.6 0h.87v8.83h-.88v-8.82zm-1.6 0h.88v8.83h-.87v-8.82zm-1.56 0h.84v8.83h-.84v-8.82zm-.87-.87h10.53v10.58h-10.54v-10.57z" stroke="#000" stroke-opacity="0" fill="#20c2ef"/><path d="M1146.9 1067.32h.82v8.82h-.83v-8.82zm-1.62 0h.87v8.82h-.87v-8.82zm-1.6 0h.88v8.82h-.87v-8.82zm-1.6 0h.88v8.82h-.87v-8.82zm-1.58 0h.86v8.82h-.86v-8.82zm-1.57 0h.83v8.82h-.83v-8.82zm-.88-.88h10.55v10.58h-10.55v-10.58z" stroke="#000" stroke-opacity="0" fill="#00acd3"/><path d="M1111.44 1094.16c1.6 0 2.9 1.3 2.9 2.92 0 1.6-1.3 2.92-2.9 2.92-1.6 0-2.9-1.3-2.9-2.92 0-1.6 1.3-2.92 2.9-2.92" stroke="#000" stroke-opacity="0" fill="#d4edf1"/><path d="M1111.44 1095c.27 0 .52.04.76.13-.26.15-.43.42-.43.74 0 .48.38.85.85.85.32 0 .6-.18.75-.44.1.25.16.52.16.8 0 1.15-.94 2.1-2.1 2.1-1.14 0-2.07-.95-2.07-2.1 0-1.15.93-2.1 2.08-2.1M1060 1088.12h135.29c-2.98-.75-9.34-1.77-8.26-5.64-5.4 6.22-18.26 4.36-21.5 1.3-3.66 5.28-24.77 3.27-26.26-.84-4.6 5.36-18.67 5.36-23.27 0-1.48 4.1-22.58 6.12-26.23.84-3.25 3.06-16.1 4.92-21.52-1.3 1.1 3.88-5.27 4.9-8.25 5.64" stroke="#000" stroke-opacity="0" fill="#394d54"/><path d="M1119.17 1115.18c-7.2-3.42-11.15-8.1-13.36-13.17-2.67.78-5.88 1.27-9.62 1.48-1.4.08-2.88.12-4.44.12-1.78 0-3.67-.05-5.65-.16 6.6 6.62 14.7 11.72 29.77 11.8 1.1 0 2.2 0 3.3-.06z" stroke="#000" stroke-opacity="0" fill="#bfdbe0"/><path d="M1108.5 1106.7c-1-1.35-1.97-3.06-2.68-4.7-2.68.78-5.9 1.26-9.63 1.48 2.56 1.4 6.23 2.7 12.3 3.23z" stroke="#000" stroke-opacity="0" fill="#d4edf1"/><g><use xlink:href="#I" transform="matrix(1,0,0,1,1030,1163.4770736733642) translate(70.05 14.4)"/></g><path d="M1851.83 1681.17H2040v188.17h-188.17v-188.17z" stroke="#fff" stroke-opacity="0" fill="#d6242d"/><path d="M2001.6 1728.84h-111.38c-3.9 0-7.03 3.15-7.03 7.05v78.72c0 3.9 3.13 7.05 7.02 7.05h111.4c3.88 0 7.02-3.16 7.02-7.06v-78.7c0-3.9-3.14-7.06-7.03-7.06zm2.02 85.78c0 1.1-.88 2.04-2 2.04h-111.4c-1.13 0-2-.93-2-2.05v-78.7c0-1.12.87-2.05 2-2.05h111.4c1.12 0 2 .93 2 2.04z" stroke="#fff" stroke-opacity="0" fill="#fff"/><path d="M1953.44 1761.46h25.1v5h-25.1v-5zM1988.57 1761.46h5v5h-5v-5zM1942.65 1769.77c-.45-.55-1.05-.82-1.75-.82h-35.13v-12.53c.05-2.9 1.36-5.42 3.77-7.1 2.65-2.04 5.46-2.92 8.78-2.92 3.4-.07 6.37 1 9.03 3.18 2.2 1.7 3.4 4.06 3.5 6.84v12.53h5.03v-13.55c-.1-4.13-1.96-7.58-5.32-10.02-3.66-2.78-7.63-4.07-12.24-4-9.7 0-17.57 6.3-17.57 14.02v13.55h-5c-1.42 0-2.52 1.15-2.52 2.5v35.17c0 1.35 1.1 2.5 2.5 2.5h45.17c1.4 0 2.5-1.15 2.5-2.5v-35.16c0-.68-.25-1.22-.7-1.7zm-4.26 11.78h-7.54v5.02h7.53v5h-7.54v5.02h7.53v7.5h-40.16v-30.07h40.15z" stroke="#fff" stroke-opacity="0" fill="#fff"/><path d="M1918.32 1777.94c-3.14.02-5.8 1.86-6.88 4.82-1.4 3.8.56 8.04 4.37 9.43v6.9h5.02v-6.9c2.94-1.08 4.8-3.75 4.82-6.88 0-4.06-3.27-7.36-7.33-7.38zm0 10.53c-1.76 0-3.18-1.4-3.18-3.17 0-1.78 1.42-3.2 3.17-3.2 1.77 0 3.2 1.42 3.2 3.2 0 1.76-1.43 3.17-3.18 3.17zM1953.44 1774H1971v5.02h-17.56V1774zM1981.04 1774h12.54v5.02h-12.54V1774zM1953.44 1786.55h32.62v5h-32.62v-5z" stroke="#fff" stroke-opacity="0" fill="#fff"/><g><use xlink:href="#v" transform="matrix(1,0,0,1,1821.8290219070636,1878.3402131283922) translate(16.15432098765436 28.444444444444436)"/><use xlink:href="#J" transform="matrix(1,0,0,1,1821.8290219070636,1878.3402131283922) translate(106.820987654321 28.444444444444436)"/><use xlink:href="#K" transform="matrix(1,0,0,1,1821.8290219070636,1878.3402131283922) translate(25.882716049382765 71.11111111111109)"/><use xlink:href="#L" transform="matrix(1,0,0,1,1821.8290219070636,1878.3402131283922) translate(98.77160493827164 71.11111111111109)"/><use xlink:href="#M" transform="matrix(1,0,0,1,1821.8290219070636,1878.3402131283922) translate(16.104938271604965 113.77777777777774)"/><use xlink:href="#N" transform="matrix(1,0,0,1,1821.8290219070636,1878.3402131283922) translate(80.2530864197531 156.4444444444444)"/></g><defs><path d="M24-248c93 1 206-16 204 79-1 75-69 88-152 82V0H24v-248zm52 121c47 0 100 7 100-41 0-47-54-39-100-39v80" id="O"/><path d="M85 4C-2 5 27-109 22-190h50c7 57-23 150 33 157 60-5 35-97 40-157h50l1 190h-47c-2-12 1-28-3-38-12 25-28 42-61 42" id="P"/><path d="M135-194c52 0 70 43 70 98 0 56-19 99-73 100-30 1-46-15-58-35L72 0H24l1-261h50v104c11-23 29-37 60-37zM114-30c31 0 40-27 40-66 0-37-7-63-39-63s-41 28-41 65c0 36 8 64 40 64" id="Q"/><path d="M25 0v-261h50V0H25" id="R"/><path d="M25-224v-37h50v37H25zM25 0v-190h50V0H25" id="S"/><path d="M190-63c-7 42-38 67-86 67-59 0-84-38-90-98-12-110 154-137 174-36l-49 2c-2-19-15-32-35-32-30 0-35 28-38 64-6 74 65 87 74 30" id="T"/><g id="a"><use transform="matrix(0.09876543209876541,0,0,0.09876543209876541,0,0)" xlink:href="#O"/><use transform="matrix(0.09876543209876541,0,0,0.09876543209876541,23.7037037037037,0)" xlink:href="#P"/><use transform="matrix(0.09876543209876541,0,0,0.09876543209876541,45.33333333333333,0)" xlink:href="#Q"/><use transform="matrix(0.09876543209876541,0,0,0.09876543209876541,66.96296296296296,0)" xlink:href="#R"/><use transform="matrix(0.09876543209876541,0,0,0.09876543209876541,76.8395061728395,0)" xlink:href="#S"/><use transform="matrix(0.09876543209876541,0,0,0.09876543209876541,86.71604938271605,0)" xlink:href="#T"/></g><path d="M169-182c-1-43-94-46-97-3 18 66 151 10 154 114 3 95-165 93-204 36-6-8-10-19-12-30l50-8c3 46 112 56 116 5-17-69-150-10-154-114-4-87 153-88 188-35 5 8 8 18 10 28" id="U"/><path d="M135-194c87-1 58 113 63 194h-50c-7-57 23-157-34-157-59 0-34 97-39 157H25l-1-190h47c2 12-1 28 3 38 12-26 28-41 61-42" id="V"/><path d="M185-48c-13 30-37 53-82 52C43 2 14-33 14-96s30-98 90-98c62 0 83 45 84 108H66c0 31 8 55 39 56 18 0 30-7 34-22zm-45-69c5-46-57-63-70-21-2 6-4 13-4 21h74" id="W"/><path d="M115-3C79 11 28 4 28-45v-112H4v-33h27l15-45h31v45h36v33H77v99c-1 23 16 31 38 25v30" id="X"/><path d="M137-138c1-29-70-34-71-4 15 46 118 7 119 86 1 83-164 76-172 9l43-7c4 19 20 25 44 25 33 8 57-30 24-41C81-84 22-81 20-136c-2-80 154-74 161-7" id="Y"/><g id="b"><use transform="matrix(0.09876543209876541,0,0,0.09876543209876541,0,0)" xlink:href="#U"/><use transform="matrix(0.09876543209876541,0,0,0.09876543209876541,23.7037037037037,0)" xlink:href="#P"/><use transform="matrix(0.09876543209876541,0,0,0.09876543209876541,45.33333333333333,0)" xlink:href="#Q"/><use transform="matrix(0.09876543209876541,0,0,0.09876543209876541,66.96296296296296,0)" xlink:href="#V"/><use transform="matrix(0.09876543209876541,0,0,0.09876543209876541,88.59259259259258,0)" xlink:href="#W"/><use transform="matrix(0.09876543209876541,0,0,0.09876543209876541,108.34567901234568,0)" xlink:href="#X"/><use transform="matrix(0.09876543209876541,0,0,0.09876543209876541,120.09876543209876,0)" xlink:href="#Y"/></g><path d="M135-150c-39-12-60 13-60 57V0H25l-1-190h47c2 13-1 29 3 40 6-28 27-53 61-41v41" id="Z"/><path d="M128 0H69L1-190h53L99-40l48-150h52" id="aa"/><path d="M133-34C117-15 103 5 69 4 32 3 11-16 11-54c-1-60 55-63 116-61 1-26-3-47-28-47-18 1-26 9-28 27l-52-2c7-38 36-58 82-57s74 22 75 68l1 82c-1 14 12 18 25 15v27c-30 8-71 5-69-32zm-48 3c29 0 43-24 42-57-32 0-66-3-65 30 0 17 8 27 23 27" id="ab"/><g id="c"><use transform="matrix(0.09876543209876541,0,0,0.09876543209876541,0,0)" xlink:href="#O"/><use transform="matrix(0.09876543209876541,0,0,0.09876543209876541,23.7037037037037,0)" xlink:href="#Z"/><use transform="matrix(0.09876543209876541,0,0,0.09876543209876541,37.53086419753086,0)" xlink:href="#S"/><use transform="matrix(0.09876543209876541,0,0,0.09876543209876541,47.407407407407405,0)" xlink:href="#aa"/><use transform="matrix(0.09876543209876541,0,0,0.09876543209876541,67.16049382716048,0)" xlink:href="#ab"/><use transform="matrix(0.09876543209876541,0,0,0.09876543209876541,86.91358024691357,0)" xlink:href="#X"/><use transform="matrix(0.09876543209876541,0,0,0.09876543209876541,98.66666666666666,0)" xlink:href="#W"/></g><path d="M147 0H94L2-248h55l64 206c17-72 42-137 63-206h54" id="ac"/><path d="M67-125c0 53 21 87 73 88 37 1 54-22 65-47l45 17C233-25 199 4 140 4 58 4 20-42 15-125 8-235 124-281 211-232c18 10 29 29 36 50l-46 12c-8-25-30-41-62-41-52 0-71 34-72 86" id="ad"/><g id="d"><use transform="matrix(0.11111111111111109,0,0,0.11111111111111109,0,0)" xlink:href="#ac"/><use transform="matrix(0.11111111111111109,0,0,0.11111111111111109,26.66666666666666,0)" xlink:href="#O"/><use transform="matrix(0.11111111111111109,0,0,0.11111111111111109,53.33333333333332,0)" xlink:href="#ad"/></g><path d="M182-130c37 4 62 22 62 59C244 23 116-4 24 0v-248c84 5 203-23 205 63 0 31-19 50-47 55zM76-148c40-3 101 13 101-30 0-44-60-28-101-31v61zm0 110c48-3 116 14 116-37 0-48-69-32-116-35v72" id="ae"/><path d="M147 0L96-86 75-71V0H25v-261h50v150l67-79h53l-66 74L201 0h-54" id="af"/><g id="e"><use transform="matrix(0.09876543209876541,0,0,0.09876543209876541,0,0)" xlink:href="#ae"/><use transform="matrix(0.09876543209876541,0,0,0.09876543209876541,25.580246913580243,0)" xlink:href="#W"/><use transform="matrix(0.09876543209876541,0,0,0.09876543209876541,45.33333333333333,0)" xlink:href="#ab"/><use transform="matrix(0.09876543209876541,0,0,0.09876543209876541,65.0864197530864,0)" xlink:href="#V"/><use transform="matrix(0.09876543209876541,0,0,0.09876543209876541,86.71604938271602,0)" xlink:href="#Y"/><use transform="matrix(0.09876543209876541,0,0,0.09876543209876541,106.46913580246911,0)" xlink:href="#X"/><use transform="matrix(0.09876543209876541,0,0,0.09876543209876541,118.2222222222222,0)" xlink:href="#ab"/><use transform="matrix(0.09876543209876541,0,0,0.09876543209876541,137.9753086419753,0)" xlink:href="#R"/><use transform="matrix(0.09876543209876541,0,0,0.09876543209876541,147.85185185185182,0)" xlink:href="#af"/></g><path d="M24 0v-248h195v40H76v63h132v40H76v65h150V0H24" id="ag"/><path d="M88-194c31-1 46 15 58 34l-1-101h50l1 261h-48c-2-10 0-23-3-31C134-8 116 4 84 4 32 4 16-41 15-95c0-56 19-97 73-99zm17 164c33 0 40-30 41-66 1-37-9-64-41-64s-38 30-39 65c0 43 13 65 39 65" id="ah"/><path d="M76-208v77h127v40H76V0H24v-248h183v40H76" id="ai"/><g id="f"><use transform="matrix(0.09876543209876541,0,0,0.09876543209876541,0,0)" xlink:href="#ag"/><use transform="matrix(0.09876543209876541,0,0,0.09876543209876541,23.7037037037037,0)" xlink:href="#ah"/><use transform="matrix(0.09876543209876541,0,0,0.09876543209876541,45.33333333333333,0)" xlink:href="#ai"/><use transform="matrix(0.09876543209876541,0,0,0.09876543209876541,66.96296296296296,0)" xlink:href="#S"/></g><path d="M275 0h-61l-44-196L126 0H64L0-248h53L97-49l45-199h58l43 199 44-199h52" id="aj"/><g id="g"><use transform="matrix(0.09876543209876541,0,0,0.09876543209876541,0,0)" xlink:href="#aj"/><use transform="matrix(0.09876543209876541,0,0,0.09876543209876541,32.79012345679011,0)" xlink:href="#W"/><use transform="matrix(0.09876543209876541,0,0,0.09876543209876541,52.5432098765432,0)" xlink:href="#Q"/></g><path d="M199 0l-22-63H83L61 0H9l90-248h61L250 0h-51zm-33-102l-36-108c-10 38-24 72-36 108h72" id="ak"/><path d="M24 0v-248h52V0H24" id="al"/><g id="h"><use transform="matrix(0.09876543209876541,0,0,0.09876543209876541,0,0)" xlink:href="#ak"/><use transform="matrix(0.09876543209876541,0,0,0.09876543209876541,25.580246913580243,0)" xlink:href="#O"/><use transform="matrix(0.09876543209876541,0,0,0.09876543209876541,49.28395061728394,0)" xlink:href="#al"/></g><g id="i"><use transform="matrix(0.09876543209876541,0,0,0.09876543209876541,0,0)" xlink:href="#ag"/><use transform="matrix(0.09876543209876541,0,0,0.09876543209876541,23.7037037037037,0)" xlink:href="#ah"/><use transform="matrix(0.09876543209876541,0,0,0.09876543209876541,45.33333333333333,0)" xlink:href="#ai"/><use transform="matrix(0.09876543209876541,0,0,0.09876543209876541,66.96296296296296,0)" xlink:href="#S"/></g><path d="M220-157c-53 9-28 100-34 157h-49v-107c1-27-5-49-29-50C55-147 81-57 75 0H25l-1-190h47c2 12-1 28 3 38 10-53 101-56 108 0 13-22 24-43 59-42 82 1 51 116 57 194h-49v-107c-1-25-5-48-29-50" id="am"/><g id="j"><use transform="matrix(0.09876543209876541,0,0,0.09876543209876541,0,0)" xlink:href="#ak"/><use transform="matrix(0.09876543209876541,0,0,0.09876543209876541,25.580246913580243,0)" xlink:href="#ah"/><use transform="matrix(0.09876543209876541,0,0,0.09876543209876541,47.20987654320987,0)" xlink:href="#am"/><use transform="matrix(0.09876543209876541,0,0,0.09876543209876541,78.81481481481481,0)" xlink:href="#S"/><use transform="matrix(0.09876543209876541,0,0,0.09876543209876541,88.69135802469135,0)" xlink:href="#V"/></g><path d="M114-157C55-157 80-60 75 0H25v-261h50l-1 109c12-26 28-41 61-42 86-1 58 113 63 194h-50c-7-57 23-157-34-157" id="an"/><g id="k"><use transform="matrix(0.09876543209876541,0,0,0.09876543209876541,0,0)" xlink:href="#U"/><use transform="matrix(0.09876543209876541,0,0,0.09876543209876541,23.7037037037037,0)" xlink:href="#an"/><use transform="matrix(0.09876543209876541,0,0,0.09876543209876541,45.33333333333333,0)" xlink:href="#ab"/><use transform="matrix(0.09876543209876541,0,0,0.09876543209876541,65.0864197530864,0)" xlink:href="#Z"/><use transform="matrix(0.09876543209876541,0,0,0.09876543209876541,78.91358024691357,0)" xlink:href="#W"/><use transform="matrix(0.09876543209876541,0,0,0.09876543209876541,98.66666666666666,0)" xlink:href="#ah"/></g><path d="M135-194c53 0 70 44 70 98 0 56-19 98-73 100-31 1-45-17-59-34 3 33 2 69 2 105H25l-1-265h48c2 10 0 23 3 31 11-24 29-35 60-35zM114-30c33 0 39-31 40-66 0-38-9-64-40-64-56 0-55 130 0 130" id="ao"/><path d="M110-194c64 0 96 36 96 99 0 64-35 99-97 99-61 0-95-36-95-99 0-62 34-99 96-99zm-1 164c35 0 45-28 45-65 0-40-10-65-43-65-34 0-45 26-45 65 0 36 10 65 43 65" id="ap"/><g id="l"><use transform="matrix(0.09876543209876541,0,0,0.09876543209876541,0,0)" xlink:href="#ak"/><use transform="matrix(0.09876543209876541,0,0,0.09876543209876541,25.580246913580243,0)" xlink:href="#ao"/><use transform="matrix(0.09876543209876541,0,0,0.09876543209876541,47.20987654320987,0)" xlink:href="#ao"/><use transform="matrix(0.09876543209876541,0,0,0.09876543209876541,68.83950617283949,0)" xlink:href="#R"/><use transform="matrix(0.09876543209876541,0,0,0.09876543209876541,78.71604938271604,0)" xlink:href="#S"/><use transform="matrix(0.09876543209876541,0,0,0.09876543209876541,88.59259259259258,0)" xlink:href="#T"/><use transform="matrix(0.09876543209876541,0,0,0.09876543209876541,108.34567901234568,0)" xlink:href="#ab"/><use transform="matrix(0.09876543209876541,0,0,0.09876543209876541,128.09876543209876,0)" xlink:href="#X"/><use transform="matrix(0.09876543209876541,0,0,0.09876543209876541,139.85185185185185,0)" xlink:href="#S"/><use transform="matrix(0.09876543209876541,0,0,0.09876543209876541,149.72839506172838,0)" xlink:href="#ap"/><use transform="matrix(0.09876543209876541,0,0,0.09876543209876541,171.358024691358,0)" xlink:href="#V"/></g><path d="M24 0v-248h52v208h133V0H24" id="aq"/><g id="m"><use transform="matrix(0.09876543209876541,0,0,0.09876543209876541,0,0)" xlink:href="#aq"/><use transform="matrix(0.09876543209876541,0,0,0.09876543209876541,21.629629629629626,0)" xlink:href="#ap"/><use transform="matrix(0.09876543209876541,0,0,0.09876543209876541,43.25925925925925,0)" xlink:href="#ab"/><use transform="matrix(0.09876543209876541,0,0,0.09876543209876541,63.012345679012334,0)" xlink:href="#ah"/></g><g id="n"><use transform="matrix(0.09876543209876541,0,0,0.09876543209876541,0,0)" xlink:href="#ae"/><use transform="matrix(0.09876543209876541,0,0,0.09876543209876541,25.580246913580243,0)" xlink:href="#ab"/><use transform="matrix(0.09876543209876541,0,0,0.09876543209876541,45.33333333333333,0)" xlink:href="#R"/><use transform="matrix(0.09876543209876541,0,0,0.09876543209876541,55.20987654320988,0)" xlink:href="#ab"/><use transform="matrix(0.09876543209876541,0,0,0.09876543209876541,74.96296296296296,0)" xlink:href="#V"/><use transform="matrix(0.09876543209876541,0,0,0.09876543209876541,96.59259259259258,0)" xlink:href="#T"/><use transform="matrix(0.09876543209876541,0,0,0.09876543209876541,116.34567901234568,0)" xlink:href="#W"/><use transform="matrix(0.09876543209876541,0,0,0.09876543209876541,136.09876543209876,0)" xlink:href="#Z"/></g><g id="o"><use transform="matrix(0.09876543209876541,0,0,0.09876543209876541,0,0)" xlink:href="#ak"/><use transform="matrix(0.09876543209876541,0,0,0.09876543209876541,25.580246913580243,0)" xlink:href="#P"/><use transform="matrix(0.09876543209876541,0,0,0.09876543209876541,47.20987654320987,0)" xlink:href="#Z"/><use transform="matrix(0.09876543209876541,0,0,0.09876543209876541,61.03703703703704,0)" xlink:href="#ap"/><use transform="matrix(0.09876543209876541,0,0,0.09876543209876541,82.66666666666666,0)" xlink:href="#Z"/><use transform="matrix(0.09876543209876541,0,0,0.09876543209876541,96.49382716049382,0)" xlink:href="#ab"/></g><path d="M195-6C206 82 75 100 31 46c-4-6-6-13-8-21l49-6c3 16 16 24 34 25 40 0 42-37 40-79-11 22-30 35-61 35-53 0-70-43-70-97 0-56 18-96 73-97 30 0 46 14 59 34l2-30h47zm-90-29c32 0 41-27 41-63 0-35-9-62-40-62-32 0-39 29-40 63 0 36 9 62 39 62" id="ar"/><g id="p"><use transform="matrix(0.09876543209876541,0,0,0.09876543209876541,0,0)" xlink:href="#O"/><use transform="matrix(0.09876543209876541,0,0,0.09876543209876541,23.7037037037037,0)" xlink:href="#ap"/><use transform="matrix(0.09876543209876541,0,0,0.09876543209876541,45.33333333333333,0)" xlink:href="#Y"/><use transform="matrix(0.09876543209876541,0,0,0.09876543209876541,65.0864197530864,0)" xlink:href="#X"/><use transform="matrix(0.09876543209876541,0,0,0.09876543209876541,76.83950617283949,0)" xlink:href="#ar"/><use transform="matrix(0.09876543209876541,0,0,0.09876543209876541,98.46913580246911,0)" xlink:href="#Z"/><use transform="matrix(0.09876543209876541,0,0,0.09876543209876541,112.29629629629628,0)" xlink:href="#W"/><use transform="matrix(0.09876543209876541,0,0,0.09876543209876541,132.04938271604937,0)" xlink:href="#Y"/></g><path d="M24-248c120-7 223 5 221 122C244-46 201 0 124 0H24v-248zM76-40c74 7 117-18 117-86 0-67-45-88-117-82v168" id="as"/><path d="M123 10C108 53 80 86 19 72V37c35 8 53-11 59-39L3-190h52l48 148c12-52 28-100 44-148h51" id="at"/><g id="q"><use transform="matrix(0.09876543209876541,0,0,0.09876543209876541,0,0)" xlink:href="#as"/><use transform="matrix(0.09876543209876541,0,0,0.09876543209876541,25.580246913580243,0)" xlink:href="#at"/><use transform="matrix(0.09876543209876541,0,0,0.09876543209876541,45.33333333333333,0)" xlink:href="#V"/><use transform="matrix(0.09876543209876541,0,0,0.09876543209876541,66.96296296296296,0)" xlink:href="#ab"/><use transform="matrix(0.09876543209876541,0,0,0.09876543209876541,86.71604938271605,0)" xlink:href="#am"/><use transform="matrix(0.09876543209876541,0,0,0.09876543209876541,118.32098765432099,0)" xlink:href="#ap"/><use transform="matrix(0.09876543209876541,0,0,0.09876543209876541,139.9506172839506,0)" xlink:href="#as"/><use transform="matrix(0.09876543209876541,0,0,0.09876543209876541,165.53086419753086,0)" xlink:href="#ae"/></g><g id="r"><use transform="matrix(0.0987654320987654,0,0,0.0987654320987654,0,0)" xlink:href="#U"/><use transform="matrix(0.0987654320987654,0,0,0.0987654320987654,23.703703703703695,0)" xlink:href="#P"/><use transform="matrix(0.0987654320987654,0,0,0.0987654320987654,45.333333333333314,0)" xlink:href="#S"/><use transform="matrix(0.0987654320987654,0,0,0.0987654320987654,55.209876543209845,0)" xlink:href="#X"/><use transform="matrix(0.0987654320987654,0,0,0.0987654320987654,66.96296296296293,0)" xlink:href="#W"/></g><path d="M121-226c-27-7-43 5-38 36h38v33H83V0H34v-157H6v-33h28c-9-59 32-81 87-68v32" id="au"/><g id="s"><use transform="matrix(0.0987654320987654,0,0,0.0987654320987654,0,0)" xlink:href="#ap"/><use transform="matrix(0.0987654320987654,0,0,0.0987654320987654,21.629629629629623,0)" xlink:href="#au"/></g><g id="t"><use transform="matrix(0.0987654320987654,0,0,0.0987654320987654,0,0)" xlink:href="#aq"/><use transform="matrix(0.0987654320987654,0,0,0.0987654320987654,21.629629629629623,0)" xlink:href="#ab"/><use transform="matrix(0.0987654320987654,0,0,0.0987654320987654,41.3827160493827,0)" xlink:href="#am"/><use transform="matrix(0.0987654320987654,0,0,0.0987654320987654,72.98765432098763,0)" xlink:href="#Q"/><use transform="matrix(0.0987654320987654,0,0,0.0987654320987654,94.61728395061725,0)" xlink:href="#ah"/><use transform="matrix(0.0987654320987654,0,0,0.0987654320987654,116.24691358024687,0)" xlink:href="#ab"/></g><g id="u"><use transform="matrix(0.0987654320987654,0,0,0.0987654320987654,0,0)" xlink:href="#au"/><use transform="matrix(0.0987654320987654,0,0,0.0987654320987654,11.753086419753082,0)" xlink:href="#P"/><use transform="matrix(0.0987654320987654,0,0,0.0987654320987654,33.38271604938271,0)" xlink:href="#V"/><use transform="matrix(0.0987654320987654,0,0,0.0987654320987654,55.01234567901233,0)" xlink:href="#T"/><use transform="matrix(0.0987654320987654,0,0,0.0987654320987654,74.7654320987654,0)" xlink:href="#X"/><use transform="matrix(0.0987654320987654,0,0,0.0987654320987654,86.51851851851848,0)" xlink:href="#S"/><use transform="matrix(0.0987654320987654,0,0,0.0987654320987654,96.39506172839502,0)" xlink:href="#ap"/><use transform="matrix(0.0987654320987654,0,0,0.0987654320987654,118.02469135802463,0)" xlink:href="#V"/><use transform="matrix(0.0987654320987654,0,0,0.0987654320987654,139.65432098765427,0)" xlink:href="#Y"/></g><g id="v"><use transform="matrix(0.0987654320987654,0,0,0.0987654320987654,0,0)" xlink:href="#ak"/><use transform="matrix(0.0987654320987654,0,0,0.0987654320987654,23.604938271604933,0)" xlink:href="#aj"/><use transform="matrix(0.0987654320987654,0,0,0.0987654320987654,57.0864197530864,0)" xlink:href="#U"/></g><g id="w"><use transform="matrix(0.0987654320987654,0,0,0.0987654320987654,0,0)" xlink:href="#U"/><use transform="matrix(0.0987654320987654,0,0,0.0987654320987654,23.703703703703695,0)" xlink:href="#W"/><use transform="matrix(0.0987654320987654,0,0,0.0987654320987654,43.45679012345677,0)" xlink:href="#T"/><use transform="matrix(0.0987654320987654,0,0,0.0987654320987654,63.209876543209845,0)" xlink:href="#Z"/><use transform="matrix(0.0987654320987654,0,0,0.0987654320987654,77.037037037037,0)" xlink:href="#W"/><use transform="matrix(0.0987654320987654,0,0,0.0987654320987654,96.79012345679007,0)" xlink:href="#X"/><use transform="matrix(0.0987654320987654,0,0,0.0987654320987654,108.54320987654314,0)" xlink:href="#Y"/></g><path d="M230 0l2-204L168 0h-37L68-204 70 0H24v-248h70l56 185 57-185h69V0h-46" id="av"/><g id="x"><use transform="matrix(0.0987654320987654,0,0,0.0987654320987654,0,0)" xlink:href="#av"/><use transform="matrix(0.0987654320987654,0,0,0.0987654320987654,29.530864197530853,0)" xlink:href="#ab"/><use transform="matrix(0.0987654320987654,0,0,0.0987654320987654,49.283950617283935,0)" xlink:href="#V"/><use transform="matrix(0.0987654320987654,0,0,0.0987654320987654,70.91358024691355,0)" xlink:href="#ab"/><use transform="matrix(0.0987654320987654,0,0,0.0987654320987654,90.66666666666663,0)" xlink:href="#ar"/><use transform="matrix(0.0987654320987654,0,0,0.0987654320987654,112.29629629629626,0)" xlink:href="#W"/><use transform="matrix(0.0987654320987654,0,0,0.0987654320987654,132.04938271604934,0)" xlink:href="#Z"/></g><linearGradient gradientUnits="userSpaceOnUse" id="y" x1="140" y1="1848.17" x2="328.17" y2="1660"><stop offset="0%" stop-color="#b0084d"/><stop offset="100%" stop-color="#ff4f8b"/></linearGradient><g id="z"><use transform="matrix(0.09938271604938267,0,0,0.09938271604938267,0,0)" xlink:href="#ak"/><use transform="matrix(0.09938271604938267,0,0,0.09938271604938267,23.752469135802457,0)" xlink:href="#aj"/><use transform="matrix(0.09938271604938267,0,0,0.09938271604938267,57.443209876543186,0)" xlink:href="#U"/></g><g id="A"><use transform="matrix(0.09938271604938267,0,0,0.09938271604938267,0,0)" xlink:href="#ad"/><use transform="matrix(0.09938271604938267,0,0,0.09938271604938267,25.740123456790112,0)" xlink:href="#R"/><use transform="matrix(0.09938271604938267,0,0,0.09938271604938267,35.67839506172838,0)" xlink:href="#ap"/><use transform="matrix(0.09938271604938267,0,0,0.09938271604938267,57.443209876543186,0)" xlink:href="#P"/><use transform="matrix(0.09938271604938267,0,0,0.09938271604938267,79.20802469135799,0)" xlink:href="#ah"/><use transform="matrix(0.09938271604938267,0,0,0.09938271604938267,100.97283950617279,0)" xlink:href="#aj"/><use transform="matrix(0.09938271604938267,0,0,0.09938271604938267,133.37160493827153,0)" xlink:href="#ab"/><use transform="matrix(0.09938271604938267,0,0,0.09938271604938267,153.24814814814806,0)" xlink:href="#X"/><use transform="matrix(0.09938271604938267,0,0,0.09938271604938267,165.0746913580246,0)" xlink:href="#T"/><use transform="matrix(0.09938271604938267,0,0,0.09938271604938267,184.95123456790114,0)" xlink:href="#an"/></g><g id="B"><use transform="matrix(0.09938271604938267,0,0,0.09938271604938267,0,0)" xlink:href="#as"/><use transform="matrix(0.09938271604938267,0,0,0.09938271604938267,25.740123456790112,0)" xlink:href="#ab"/><use transform="matrix(0.09938271604938267,0,0,0.09938271604938267,45.616666666666646,0)" xlink:href="#Y"/><use transform="matrix(0.09938271604938267,0,0,0.09938271604938267,65.49320987654318,0)" xlink:href="#an"/><use transform="matrix(0.09938271604938267,0,0,0.09938271604938267,87.25802469135797,0)" xlink:href="#Q"/><use transform="matrix(0.09938271604938267,0,0,0.09938271604938267,109.02283950617277,0)" xlink:href="#ap"/><use transform="matrix(0.09938271604938267,0,0,0.09938271604938267,130.78765432098757,0)" xlink:href="#ab"/><use transform="matrix(0.09938271604938267,0,0,0.09938271604938267,150.6641975308641,0)" xlink:href="#Z"/><use transform="matrix(0.09938271604938267,0,0,0.09938271604938267,164.57777777777767,0)" xlink:href="#ah"/><use transform="matrix(0.09938271604938267,0,0,0.09938271604938267,186.34259259259247,0)" xlink:href="#Y"/></g><g id="C"><use transform="matrix(0.0987654320987654,0,0,0.0987654320987654,0,0)" xlink:href="#ak"/><use transform="matrix(0.0987654320987654,0,0,0.0987654320987654,23.604938271604933,0)" xlink:href="#aj"/><use transform="matrix(0.0987654320987654,0,0,0.0987654320987654,57.0864197530864,0)" xlink:href="#U"/></g><g id="D"><use transform="matrix(0.0987654320987654,0,0,0.0987654320987654,0,0)" xlink:href="#ad"/><use transform="matrix(0.0987654320987654,0,0,0.0987654320987654,25.58024691358024,0)" xlink:href="#W"/><use transform="matrix(0.0987654320987654,0,0,0.0987654320987654,45.333333333333314,0)" xlink:href="#Z"/><use transform="matrix(0.0987654320987654,0,0,0.0987654320987654,59.16049382716047,0)" xlink:href="#X"/><use transform="matrix(0.0987654320987654,0,0,0.0987654320987654,70.91358024691355,0)" xlink:href="#S"/><use transform="matrix(0.0987654320987654,0,0,0.0987654320987654,80.7901234567901,0)" xlink:href="#au"/><use transform="matrix(0.0987654320987654,0,0,0.0987654320987654,92.54320987654319,0)" xlink:href="#S"/><use transform="matrix(0.0987654320987654,0,0,0.0987654320987654,102.41975308641975,0)" xlink:href="#T"/><use transform="matrix(0.0987654320987654,0,0,0.0987654320987654,122.17283950617279,0)" xlink:href="#ab"/><use transform="matrix(0.0987654320987654,0,0,0.0987654320987654,141.9259259259259,0)" xlink:href="#X"/><use transform="matrix(0.0987654320987654,0,0,0.0987654320987654,153.67901234567898,0)" xlink:href="#W"/></g><path d="M195 0l-88-114-31 24V0H24v-248h52v113l112-113h60L142-143 257 0h-62" id="aw"/><g id="E"><use transform="matrix(0.0987654320987654,0,0,0.0987654320987654,0,0)" xlink:href="#aw"/><use transform="matrix(0.0987654320987654,0,0,0.0987654320987654,25.58024691358024,0)" xlink:href="#av"/><use transform="matrix(0.0987654320987654,0,0,0.0987654320987654,55.11111111111109,0)" xlink:href="#U"/></g><path d="M12 0v-35l95-120H19v-35h142v35L67-36h103V0H12" id="ax"/><g id="F"><use transform="matrix(0.0987654320987654,0,0,0.0987654320987654,0,0)" xlink:href="#ak"/><use transform="matrix(0.0987654320987654,0,0,0.0987654320987654,25.58024691358024,0)" xlink:href="#am"/><use transform="matrix(0.0987654320987654,0,0,0.0987654320987654,57.18518518518517,0)" xlink:href="#ab"/><use transform="matrix(0.0987654320987654,0,0,0.0987654320987654,76.93827160493825,0)" xlink:href="#ax"/><use transform="matrix(0.0987654320987654,0,0,0.0987654320987654,94.71604938271602,0)" xlink:href="#ap"/><use transform="matrix(0.0987654320987654,0,0,0.0987654320987654,116.34567901234564,0)" xlink:href="#V"/></g><path d="M240-174c0 40-23 61-54 70L253 0h-59l-57-94H76V0H24v-248c93 4 217-23 216 74zM76-134c48-2 112 12 112-38 0-48-66-32-112-35v73" id="ay"/><g id="G"><use transform="matrix(0.0987654320987654,0,0,0.0987654320987654,0,0)" xlink:href="#ay"/><use transform="matrix(0.0987654320987654,0,0,0.0987654320987654,25.58024691358024,0)" xlink:href="#ap"/><use transform="matrix(0.0987654320987654,0,0,0.0987654320987654,47.20987654320986,0)" xlink:href="#P"/><use transform="matrix(0.0987654320987654,0,0,0.0987654320987654,68.83950617283948,0)" xlink:href="#X"/><use transform="matrix(0.0987654320987654,0,0,0.0987654320987654,80.59259259259255,0)" xlink:href="#W"/></g><path d="M139-81c0-46-55-55-73-27H18l9-140h149v37H72l-4 63c44-38 133-4 122 66C201 21 21 35 11-62l49-4c5 18 15 30 39 30 26 0 40-18 40-45" id="az"/><path d="M128-127c34 4 56 21 59 58 7 91-148 94-172 28-4-9-6-17-7-26l51-5c1 24 16 35 40 36 23 0 39-12 38-36-1-31-31-36-65-34v-40c32 2 59-3 59-33 0-20-13-33-34-33s-33 13-35 32l-50-3c6-44 37-68 86-68 50 0 83 20 83 66 0 35-22 52-53 58" id="aA"/><g id="H"><use transform="matrix(0.0987654320987654,0,0,0.0987654320987654,0,0)" xlink:href="#az"/><use transform="matrix(0.0987654320987654,0,0,0.0987654320987654,19.753086419753078,0)" xlink:href="#aA"/></g><path d="M30-248c118-7 216 8 213 122C240-48 200 0 122 0H30v-248zM63-27c89 8 146-16 146-99s-60-101-146-95v194" id="aB"/><path d="M100-194c62-1 85 37 85 99 1 63-27 99-86 99S16-35 15-95c0-66 28-99 85-99zM99-20c44 1 53-31 53-75 0-43-8-75-51-75s-53 32-53 75 10 74 51 75" id="aC"/><path d="M96-169c-40 0-48 33-48 73s9 75 48 75c24 0 41-14 43-38l32 2c-6 37-31 61-74 61-59 0-76-41-82-99-10-93 101-131 147-64 4 7 5 14 7 22l-32 3c-4-21-16-35-41-35" id="aD"/><path d="M143 0L79-87 56-68V0H24v-261h32v163l83-92h37l-77 82L181 0h-38" id="aE"/><path d="M100-194c63 0 86 42 84 106H49c0 40 14 67 53 68 26 1 43-12 49-29l28 8c-11 28-37 45-77 45C44 4 14-33 15-96c1-61 26-98 85-98zm52 81c6-60-76-77-97-28-3 7-6 17-6 28h103" id="aF"/><path d="M114-163C36-179 61-72 57 0H25l-1-190h30c1 12-1 29 2 39 6-27 23-49 58-41v29" id="aG"/><g id="I"><use transform="matrix(0.05,0,0,0.05,0,0)" xlink:href="#aB"/><use transform="matrix(0.05,0,0,0.05,12.950000000000001,0)" xlink:href="#aC"/><use transform="matrix(0.05,0,0,0.05,22.950000000000003,0)" xlink:href="#aD"/><use transform="matrix(0.05,0,0,0.05,31.950000000000003,0)" xlink:href="#aE"/><use transform="matrix(0.05,0,0,0.05,40.95,0)" xlink:href="#aF"/><use transform="matrix(0.05,0,0,0.05,50.95,0)" xlink:href="#aG"/></g><g id="J"><use transform="matrix(0.0987654320987654,0,0,0.0987654320987654,0,0)" xlink:href="#al"/><use transform="matrix(0.0987654320987654,0,0,0.0987654320987654,9.876543209876539,0)" xlink:href="#ah"/><use transform="matrix(0.0987654320987654,0,0,0.0987654320987654,31.506172839506164,0)" xlink:href="#W"/><use transform="matrix(0.0987654320987654,0,0,0.0987654320987654,51.259259259259245,0)" xlink:href="#V"/><use transform="matrix(0.0987654320987654,0,0,0.0987654320987654,72.88888888888886,0)" xlink:href="#X"/><use transform="matrix(0.0987654320987654,0,0,0.0987654320987654,84.64197530864195,0)" xlink:href="#S"/><use transform="matrix(0.0987654320987654,0,0,0.0987654320987654,94.51851851851849,0)" xlink:href="#X"/><use transform="matrix(0.0987654320987654,0,0,0.0987654320987654,106.27160493827157,0)" xlink:href="#at"/></g><g id="K"><use transform="matrix(0.0987654320987654,0,0,0.0987654320987654,0,0)" xlink:href="#ab"/><use transform="matrix(0.0987654320987654,0,0,0.0987654320987654,19.753086419753078,0)" xlink:href="#V"/><use transform="matrix(0.0987654320987654,0,0,0.0987654320987654,41.3827160493827,0)" xlink:href="#ah"/></g><g id="L"><use transform="matrix(0.0987654320987654,0,0,0.0987654320987654,0,0)" xlink:href="#ak"/><use transform="matrix(0.0987654320987654,0,0,0.0987654320987654,25.58024691358024,0)" xlink:href="#T"/><use transform="matrix(0.0987654320987654,0,0,0.0987654320987654,45.333333333333314,0)" xlink:href="#T"/><use transform="matrix(0.0987654320987654,0,0,0.0987654320987654,65.08641975308639,0)" xlink:href="#W"/><use transform="matrix(0.0987654320987654,0,0,0.0987654320987654,84.83950617283946,0)" xlink:href="#Y"/><use transform="matrix(0.0987654320987654,0,0,0.0987654320987654,104.59259259259254,0)" xlink:href="#Y"/></g><g id="M"><use transform="matrix(0.0987654320987654,0,0,0.0987654320987654,0,0)" xlink:href="#av"/><use transform="matrix(0.0987654320987654,0,0,0.0987654320987654,29.530864197530853,0)" xlink:href="#ab"/><use transform="matrix(0.0987654320987654,0,0,0.0987654320987654,49.283950617283935,0)" xlink:href="#V"/><use transform="matrix(0.0987654320987654,0,0,0.0987654320987654,70.91358024691355,0)" xlink:href="#ab"/><use transform="matrix(0.0987654320987654,0,0,0.0987654320987654,90.66666666666663,0)" xlink:href="#ar"/><use transform="matrix(0.0987654320987654,0,0,0.0987654320987654,112.29629629629626,0)" xlink:href="#W"/><use transform="matrix(0.0987654320987654,0,0,0.0987654320987654,132.04938271604934,0)" xlink:href="#am"/><use transform="matrix(0.0987654320987654,0,0,0.0987654320987654,163.65432098765427,0)" xlink:href="#W"/><use transform="matrix(0.0987654320987654,0,0,0.0987654320987654,183.40740740740736,0)" xlink:href="#V"/><use transform="matrix(0.0987654320987654,0,0,0.0987654320987654,205.03703703703698,0)" xlink:href="#X"/></g><path d="M67-93c0 74 22 123 53 168H70C40 30 18-18 18-93s22-123 52-168h50c-32 44-53 94-53 168" id="aH"/><path d="M102-93c0 74-22 123-52 168H0C30 29 54-18 53-93c0-74-22-123-53-168h50c30 45 52 94 52 168" id="aI"/><g id="N"><use transform="matrix(0.0987654320987654,0,0,0.0987654320987654,0,0)" xlink:href="#aH"/><use transform="matrix(0.0987654320987654,0,0,0.0987654320987654,11.753086419753082,0)" xlink:href="#al"/><use transform="matrix(0.0987654320987654,0,0,0.0987654320987654,21.62962962962962,0)" xlink:href="#ak"/><use transform="matrix(0.0987654320987654,0,0,0.0987654320987654,47.20987654320986,0)" xlink:href="#av"/><use transform="matrix(0.0987654320987654,0,0,0.0987654320987654,76.7407407407407,0)" xlink:href="#aI"/></g></defs></g></svg>